<svg width="80" height="80" viewBox="0 0 80 80" fill="none" xmlns="http://www.w3.org/2000/svg">
<rect width="80" height="80" rx="40" fill="#7ED63F" fill-opacity="0.2"/>
<path fill-rule="evenodd" clip-rule="evenodd" d="M36.779 49.4982C36.6338 49.4982 36.4574 49.4272 36.3433 49.3257L28.4475 41.6408C27.3062 40.5241 27.2958 38.707 28.4475 37.6309C29.5473 36.5243 31.446 36.5243 32.5769 37.5903L36.7479 41.6408L47.3102 31.3368C49.1363 29.5501 52.2801 30.8292 52.2801 33.3367C52.2801 34.1285 51.9896 34.8392 51.4397 35.4178L37.3289 49.1429C37.1837 49.346 37.0799 49.4982 36.779 49.4982ZM27.5759 23.0023C26.9742 23.0023 26.7044 22.2206 27.2024 21.8957C28.0843 21.3374 28.9351 20.7689 29.8689 20.3628C30.6471 20.0177 31.1347 21.114 30.4188 21.4693C29.6095 21.8653 28.5927 22.3119 27.8976 22.9007C27.8249 22.9718 27.7212 23.0023 27.5759 23.0023ZM20.2612 31.4485C19.8254 31.4485 19.4934 30.9511 19.6802 30.5551C20.0329 29.7633 20.697 28.5857 21.1742 27.9055C21.6411 27.2355 22.6579 27.9664 22.2014 28.6162C21.859 29.1034 20.946 30.5551 20.7696 31.083C20.7385 31.2962 20.4791 31.4485 20.2612 31.4485ZM18.1757 42.2804C17.8541 42.2804 17.5532 42.0266 17.5532 41.7119C17.522 40.6865 17.4702 39.6815 17.522 38.6664C17.5635 37.8745 18.8397 37.8745 18.7982 38.8491C18.7567 39.7627 18.7567 40.7373 18.8397 41.6408C18.8709 41.9961 18.6219 42.2804 18.2483 42.3108C18.2172 42.2804 18.1757 42.2804 18.1757 42.2804ZM21.942 52.7265C21.3299 52.7265 20.8526 51.5692 20.4791 50.9702C20.1782 50.4829 19.3066 49.3358 20.1159 48.9703C20.8422 48.6252 21.112 49.6099 21.5374 50.3307C21.8694 50.8586 22.1288 51.3255 22.4193 51.7215C22.6891 52.1174 22.3259 52.7265 21.942 52.7265ZM30.533 59.9139C30.0661 59.9139 28.1155 58.6957 27.5759 58.3708C26.8912 57.9648 27.5344 56.8988 28.2607 57.3354C29.1011 57.8429 29.9416 58.3505 30.7923 58.7261C31.4045 59.0002 31.2074 59.9139 30.533 59.9139ZM39.9228 61.9848C39.3314 61.9848 37.8996 62.1676 37.9826 61.2641C38.0656 60.4722 38.9579 60.7362 39.9643 60.7362C40.5453 60.7362 41.0953 60.7362 41.6037 60.6956C42.4337 60.6245 42.5478 61.8833 41.7178 61.9442C41.1264 61.9848 40.5142 61.9848 39.9228 61.9848ZM49.6862 59.7312C49.0222 59.7312 48.8043 58.8277 49.3957 58.5536C50.288 58.1373 51.1491 57.6501 51.9169 57.1222C52.6017 56.645 53.2969 57.7008 52.6432 58.117C52.2489 58.3708 50.1012 59.7312 49.6862 59.7312ZM58.163 52.4016C57.6961 52.4016 57.3537 51.8331 57.6546 51.4372L58.3498 50.3307C58.8789 49.4779 59.1487 48.2699 59.958 48.6455C60.2796 48.7876 60.3937 49.1835 60.2485 49.4678C59.8438 50.2495 59.2939 51.3255 58.744 52.0768C58.5676 52.29 58.3809 52.4016 58.163 52.4016ZM61.7426 41.9251C61.3587 41.9251 61.0889 41.6002 61.12 41.2449C61.203 40.3617 61.203 39.2552 61.12 38.3821C61.0474 37.57 62.3132 37.4583 62.4066 38.2704C62.4896 39.0014 62.5518 40.6155 62.4377 41.3464C62.3651 41.6713 62.0746 41.9251 61.7426 41.9251ZM59.4807 31.083C58.8685 31.083 58.7337 30.3013 58.1215 29.3369C57.9036 28.9816 57.6857 28.6162 57.4263 28.3015C56.9179 27.6416 58.0177 26.931 58.4535 27.5807C59.0242 28.4233 59.6052 29.2862 60.0306 30.1897C60.2174 30.5957 59.9061 31.083 59.4807 31.083ZM51.9896 22.7891C51.5434 22.7891 50.9728 22.1394 50.5577 22.0378C50.5577 22.0378 50.5266 22.0378 50.5266 22.0074C50.0078 21.713 49.4994 21.4287 49.0637 21.2156C48.3062 20.8704 48.8873 19.7943 49.6447 20.1395C50.4436 20.5151 51.5434 21.1648 52.3527 21.6419C52.9234 21.9871 52.5706 22.7891 51.9896 22.7891ZM38.242 19.3172C37.4431 19.3172 37.4223 18.1497 38.2109 18.0685C39.2277 17.967 40.3275 17.9975 41.3131 18.0381C42.1536 18.0888 42.0291 19.3578 41.199 19.2867C40.2548 19.2157 39.2277 19.2157 38.2835 19.3172H38.242ZM39.9228 58.5536C29.4747 58.5536 20.9875 50.219 20.9875 39.9861C20.9875 29.7633 29.5058 21.4287 39.9643 21.4287C50.4125 21.4287 58.9308 29.7633 58.9308 39.9861C58.8893 50.219 50.3814 58.5536 39.9228 58.5536ZM39.9228 22.718C30.1698 22.718 22.2325 30.4739 22.2325 40.0267C22.2325 49.5794 30.1698 57.3354 39.9228 57.3354C49.6862 57.3354 57.6131 49.5794 57.6131 40.0267C57.6131 30.4435 49.6862 22.718 39.9228 22.718ZM30.533 38.0268C29.0804 38.0268 28.3333 39.7323 29.3605 40.7373L36.7479 47.9653L50.5266 34.5245C51.1491 33.9052 51.1491 32.8393 50.5266 32.2302C49.8626 31.5906 48.8458 31.5906 48.1817 32.2302L37.1837 42.9605C36.8517 43.2752 36.4055 43.1331 36.1254 42.8489L31.7054 38.4938C31.3734 38.1689 30.9376 38.0268 30.533 38.0268Z" fill="#4D4D4D"/>
<path fill-rule="evenodd" clip-rule="evenodd" d="M36.7479 41.6408L47.3102 31.3368C49.1363 29.5501 52.2801 30.8292 52.2801 33.3367C52.2801 34.1285 51.9896 34.8392 51.4397 35.4178L37.3289 49.1429C37.1837 49.346 37.0799 49.4982 36.779 49.4982C36.6338 49.4982 36.4574 49.4272 36.3433 49.3257L28.4475 41.6408C27.3062 40.5241 27.2958 38.707 28.4475 37.6309C29.5473 36.5243 31.446 36.5243 32.5769 37.5903L36.7479 41.6408ZM39.9228 22.718C30.1698 22.718 22.2325 30.4739 22.2325 40.0267C22.2325 49.5795 30.1698 57.3354 39.9228 57.3354C49.6862 57.3354 57.6131 49.5795 57.6131 40.0267C57.6131 30.4435 49.6862 22.718 39.9228 22.718Z" fill="#7ED63F"/>
<path fill-rule="evenodd" clip-rule="evenodd" d="M48.1817 32.2302L37.1836 42.9605C36.8516 43.2752 36.4055 43.1331 36.1253 42.8489L31.7053 38.4938C31.3733 38.1689 30.9376 38.0268 30.5329 38.0268C29.0803 38.0268 28.3333 39.7323 29.3605 40.7373L36.7478 47.9653L50.5266 34.5245C51.1491 33.9052 51.1491 32.8393 50.5266 32.2302C49.8625 31.5906 48.8457 31.5906 48.1817 32.2302Z" fill="#D9F2F2"/>
</svg>
