<svg id="SvgjsSvg1024" width="288" height="288" xmlns="http://www.w3.org/2000/svg" version="1.1" xmlns:xlink="http://www.w3.org/1999/xlink" xmlns:svgjs="http://svgjs.com/svgjs"><defs id="SvgjsDefs1025"></defs><g id="SvgjsG1026"><svg xmlns="http://www.w3.org/2000/svg" fill-rule="evenodd" stroke-linejoin="round" stroke-miterlimit="2" clip-rule="evenodd" viewBox="0 0 32 32" width="288" height="288"><path fill="#82cd47" d="M21.949,29.315c0.183,0.318 0.486,0.549 0.841,0.641c0.355,0.092 0.733,0.037 1.047,-0.153c0.002,-0.001 0.004,-0.003 0.006,-0.004c4.295,-2.642 7.162,-7.386 7.162,-12.793c0,-8.282 -6.723,-15.006 -15.005,-15.006c-8.282,0 -15.005,6.724 -15.005,15.006c-0,5.374 2.831,10.093 7.083,12.743c0.003,0.002 0.007,0.004 0.01,0.005c0.404,0.247 0.894,0.311 1.349,0.177c0.28,-0.082 0.509,-0.282 0.629,-0.548c0.212,-0.47 0.856,-1.578 2.622,-4.64c0,-0.001 0.001,-0.002 0.001,-0.003c0.365,-0.636 0.161,-1.447 -0.462,-1.834c-1.938,-1.239 -3.23,-3.42 -3.23,-5.9c-0,-3.867 3.138,-7.006 7.005,-7.006c3.866,0 7.005,3.139 7.005,7.006c-0,2.48 -1.293,4.661 -3.24,5.906c-0.613,0.382 -0.817,1.194 -0.45,1.829c0.526,0.917 2.095,3.641 2.633,4.575l-0.001,-0.001Z" class="color82cd47 svgShape"></path><path fill="#54b435" d="M11.384,27.004c-3.774,-1.747 -6.394,-5.569 -6.394,-9.998c-0,-6.078 4.934,-11.013 11.012,-11.013c6.077,0 11.012,4.935 11.012,11.013c-0,4.429 -2.621,8.251 -6.396,9.999c-0.521,-0.907 -1.04,-1.808 -1.301,-2.264c-0.367,-0.635 -0.163,-1.447 0.45,-1.829c1.947,-1.245 3.24,-3.426 3.24,-5.906c-0,-3.867 -3.139,-7.006 -7.005,-7.006c-3.867,0 -7.005,3.139 -7.005,7.006c-0,2.48 1.292,4.661 3.23,5.9c0.623,0.387 0.827,1.198 0.462,1.834c-0,0.001 -0.001,0.002 -0.001,0.003c-0.529,0.917 -0.958,1.659 -1.304,2.261Z" class="color54b435 svgShape"></path><path fill="#fedd87" d="M0.998,17l7.998,-0l0,0.006c0,2.48 1.293,4.661 3.24,5.906c0.613,0.382 0.817,1.194 0.45,1.829c-0.526,0.917 -2.095,3.641 -2.633,4.575l0.001,-0.001c-0.183,0.318 -0.486,0.549 -0.841,0.641c-0.356,0.092 -0.733,0.037 -1.047,-0.153c-0.002,-0.001 -0.004,-0.003 -0.006,-0.004c-4.295,-2.642 -7.162,-7.386 -7.162,-12.793l-0,-0.006Z" class="colorfedd87 svgShape"></path><path fill="#ffc93c" d="M4.99 17l4.006 0 0 .006c0 2.48 1.293 4.661 3.24 5.906.613.382.817 1.194.45 1.829-.261.456-.78 1.357-1.301 2.263-3.775-1.747-6.395-5.569-6.395-9.998l0-.006zM8.479 4.023l4.021 6.915c-2.092 1.211-3.502 3.473-3.504 6.062l-7.998 0c.002-5.538 3.01-10.379 7.481-12.977z" class="colorffc93c svgShape"></path><path fill="#e1a303" d="M10.486,7.474l2.014,3.464c-2.092,1.211 -3.502,3.473 -3.504,6.062l-4.006,-0c0.002,-4.066 2.212,-7.62 5.496,-9.526Z" class="colore1a303 svgShape"></path><path fill="#8a8282" d="M10.196,6.929c-0.516,0.289 -0.924,1.043 -0.864,2.207c0.141,2.739 2.49,8.622 3.172,9.835c1.085,1.93 3.533,2.617 5.463,1.532c1.93,-1.084 2.617,-3.532 1.532,-5.463c-0.682,-1.215 -4.635,-6.211 -6.964,-7.726c-0.471,-0.306 -0.901,-0.487 -1.252,-0.549c-0.425,-0.075 -0.789,-0.004 -1.087,0.164Z" class="color8a8282 svgShape"></path><path fill="#676060" d="M10.165,6.946c-0.501,0.302 -0.892,1.049 -0.833,2.19c0.141,2.739 2.49,8.622 3.172,9.835c1.079,1.92 3.507,2.61 5.433,1.549l-7.772,-13.574Z" class="color676060 svgShape"></path><circle cx="16.002" cy="17.006" r="2.012" fill="#bfbaba" class="colorbfbaba svgShape"></circle><circle cx="16.002" cy="17.006" r="2.012" fill="#bfbaba" class="colorbfbaba svgShape"></circle><path fill="#e6e6e6" d="M14.945,15.294l1.998,3.49c-0.281,0.149 -0.601,0.234 -0.941,0.234c-1.111,-0 -2.012,-0.902 -2.012,-2.012c-0,-0.723 0.382,-1.358 0.955,-1.712Z" class="colore6e6e6 svgShape"></path><path fill="#f24545" d="M31.005,17l-7.998,-0l-0,0.006c-0,2.48 -1.293,4.661 -3.24,5.906c-0.613,0.382 -0.817,1.194 -0.45,1.829c0.526,0.917 2.095,3.641 2.633,4.575l-0.001,-0.001c0.183,0.318 0.486,0.549 0.841,0.641c0.355,0.092 0.733,0.037 1.047,-0.153c0.002,-0.001 0.004,-0.003 0.006,-0.004c4.295,-2.642 7.162,-7.386 7.162,-12.793l0,-0.006Z" class="colorf24545 svgShape"></path><path fill="#bd2222" d="M27.014,17l-0,0.006c-0,4.429 -2.621,8.251 -6.396,9.999c-0.521,-0.907 -1.04,-1.808 -1.301,-2.264c-0.367,-0.635 -0.163,-1.447 0.45,-1.829c1.947,-1.245 3.24,-3.426 3.24,-5.906l-0,-0.006l4.007,-0Z" class="colorbd2222 svgShape"></path><path fill="#54b435" d="M23.524,4.023l-4.022,6.915c2.093,1.211 3.503,3.473 3.505,6.062l7.998,-0c-0.002,-5.538 -3.01,-10.379 -7.481,-12.977Z" class="color54b435 svgShape"></path><path fill="#379237" d="M21.517,7.474c3.284,1.906 5.495,5.46 5.497,9.526l-4.007,-0c-0.002,-2.589 -1.412,-4.851 -3.505,-6.062l2.015,-3.464Z" class="color379237 svgShape"></path></svg></g></svg>