<svg width="288" height="288" viewBox="0 0 288 288" fill="none" xmlns="http://www.w3.org/2000/svg">
<g clip-path="url(#clip0_436_11)">
<path d="M135 31.5C95.2313 31.5 63 63.7313 63 103.5C63 143.269 95.2313 175.5 135 175.5C174.769 175.5 207 143.269 207 103.5H135V31.5Z" fill="#EAB915"/>
<path d="M153 13.5V85.5H225C225 45.7313 192.769 13.5 153 13.5Z" fill="#4CAF50"/>
<path d="M49.5 184.5H31.5V274.5H49.5V184.5Z" fill="#4CAF50"/>
<path d="M121.5 198H103.5V274.5H121.5V198Z" fill="#4CAF50"/>
<path d="M157.5 220.5H139.5V274.5H157.5V220.5Z" fill="#FF0000"/>
<path d="M85.5 220.5H67.5V274.5H85.5V220.5Z" fill="#FF0000"/>
<path d="M81 22.5H45C42.525 22.5 40.5 20.475 40.5 18C40.5 15.525 42.525 13.5 45 13.5H81C83.475 13.5 85.5 15.525 85.5 18C85.5 20.475 83.475 22.5 81 22.5ZM85.5 36C85.5 33.525 83.475 31.5 81 31.5H18C15.525 31.5 13.5 33.525 13.5 36C13.5 38.475 15.525 40.5 18 40.5H81C83.475 40.5 85.5 38.475 85.5 36ZM63 54C63 51.525 60.975 49.5 58.5 49.5H18C15.525 49.5 13.5 51.525 13.5 54C13.5 56.475 15.525 58.5 18 58.5H58.5C60.975 58.5 63 56.475 63 54ZM279 126C279 123.525 276.975 121.5 274.5 121.5H238.5C236.025 121.5 234 123.525 234 126C234 128.475 236.025 130.5 238.5 130.5H274.5C276.975 130.5 279 128.475 279 126ZM279 144C279 141.525 276.975 139.5 274.5 139.5H211.5C209.025 139.5 207 141.525 207 144C207 146.475 209.025 148.5 211.5 148.5H274.5C276.975 148.5 279 146.475 279 144ZM279 162C279 159.525 276.975 157.5 274.5 157.5H211.5C209.025 157.5 207 159.525 207 162C207 164.475 209.025 166.5 211.5 166.5H274.5C276.975 166.5 279 164.475 279 162ZM279 274.5C279 272.025 276.975 270 274.5 270H189C186.525 270 184.5 272.025 184.5 274.5C184.5 276.975 186.525 279 189 279H274.5C276.975 279 279 276.975 279 274.5ZM229.5 256.5C229.5 254.025 227.475 252 225 252H189C186.525 252 184.5 254.025 184.5 256.5C184.5 258.975 186.525 261 189 261H225C227.475 261 229.5 258.975 229.5 256.5ZM279 256.5C279 254.025 276.975 252 274.5 252H243C240.525 252 238.5 254.025 238.5 256.5C238.5 258.975 240.525 261 243 261H274.5C276.975 261 279 258.975 279 256.5ZM202.5 238.5C202.5 236.025 200.475 234 198 234H189C186.525 234 184.5 236.025 184.5 238.5C184.5 240.975 186.525 243 189 243H198C200.475 243 202.5 240.975 202.5 238.5ZM247.5 238.5C247.5 236.025 245.475 234 243 234H216C213.525 234 211.5 236.025 211.5 238.5C211.5 240.975 213.525 243 216 243H243C245.475 243 247.5 240.975 247.5 238.5ZM279 238.5C279 236.025 276.975 234 274.5 234H261C258.525 234 256.5 236.025 256.5 238.5C256.5 240.975 258.525 243 261 243H274.5C276.975 243 279 240.975 279 238.5ZM94.5 139.5H22.5C20.025 139.5 18 137.475 18 135V72C18 69.525 20.025 67.5 22.5 67.5C24.975 67.5 27 69.525 27 72V130.5H94.5C96.975 130.5 99 132.525 99 135C99 137.475 96.975 139.5 94.5 139.5ZM256.5 108V45C256.5 42.525 254.475 40.5 252 40.5H198C195.525 40.5 193.5 42.525 193.5 45C193.5 47.475 195.525 49.5 198 49.5H247.5V108C247.5 110.475 249.525 112.5 252 112.5C254.475 112.5 256.5 110.475 256.5 108ZM234 220.5V202.5C234 200.025 231.975 198 229.5 198H157.5C155.025 198 153 200.025 153 202.5C153 204.975 155.025 207 157.5 207H225V220.5C225 222.975 227.025 225 229.5 225C231.975 225 234 222.975 234 220.5ZM166.5 274.5C166.5 272.025 164.475 270 162 270H18V157.5C18 155.025 15.975 153 13.5 153C11.025 153 9 155.025 9 157.5V274.5C9 276.975 11.025 279 13.5 279H162C164.475 279 166.5 276.975 166.5 274.5Z" fill="#263CA2"/>
</g>
<defs>
<clipPath id="clip0_436_11">
<rect width="288" height="288" fill="white"/>
</clipPath>
</defs>
</svg>
