<svg width="35" height="34" viewBox="0 0 35 34" fill="none" xmlns="http://www.w3.org/2000/svg">
<rect x="0.666748" width="34" height="34" rx="17" fill="white"/>
<path d="M25.6667 15.5H27.6667V27H25.6667V15.5ZM22.6667 19H24.6667V27H22.6667V19ZM19.6667 16.5H21.6667V27H19.6667V16.5ZM16.6667 19.5H18.6667V27H16.6667V19.5ZM13.6667 21H15.6667V27H13.6667V21ZM10.6667 20H12.6667V27H10.6667V20ZM7.66675 22H9.66675V27H7.66675V22Z" fill="#4CAF50"/>
<path d="M25.7168 9.54999L22.6668 12.6L20.6668 10.6L15.6668 15.6L13.1668 13.1L7.9668 18.3L9.3668 19.7L13.1668 15.9L15.6668 18.4L20.6668 13.4L22.6668 15.4L27.1168 10.95L25.7168 9.54999Z" fill="#388E3C"/>
<path d="M27.6667 9H23.1667L27.6667 13.5V9Z" fill="#388E3C"/>
</svg>
