<svg width="24" height="24" viewBox="0 0 24 24" fill="none" xmlns="http://www.w3.org/2000/svg">
<path d="M15 3.75C15.1989 3.75 15.3897 3.67098 15.5303 3.53033C15.671 3.38968 15.75 3.19891 15.75 3C15.75 2.80109 15.671 2.61032 15.5303 2.46967C15.3897 2.32902 15.1989 2.25 15 2.25H11.955C10.118 2.25 8.679 2.25 7.536 2.374C6.371 2.5 5.426 2.762 4.62 3.348C4.13189 3.70264 3.70264 4.13189 3.348 4.62C2.762 5.427 2.5 6.37 2.374 7.536C2.25 8.679 2.25 10.118 2.25 11.955V12.045C2.25 13.882 2.25 15.321 2.374 16.463C2.5 17.629 2.762 18.573 3.348 19.38C3.70264 19.8681 4.13189 20.2974 4.62 20.652C5.427 21.238 6.37 21.5 7.536 21.626C8.679 21.75 10.118 21.75 11.955 21.75H12.045C13.882 21.75 15.321 21.75 16.464 21.626C17.629 21.5 18.574 21.238 19.38 20.652C19.8681 20.2974 20.2974 19.8681 20.652 19.38C21.238 18.573 21.5 17.63 21.626 16.464C21.75 15.321 21.75 13.882 21.75 12.045V9C21.75 8.80109 21.671 8.61032 21.5303 8.46967C21.3897 8.32902 21.1989 8.25 21 8.25C20.8011 8.25 20.6103 8.32902 20.4697 8.46967C20.329 8.61032 20.25 8.80109 20.25 9V12C20.25 13.892 20.249 15.25 20.135 16.302C20.022 17.34 19.807 17.99 19.438 18.498C19.176 18.858 18.858 19.176 18.498 19.438C17.99 19.808 17.34 20.023 16.302 20.135C15.25 20.249 13.892 20.25 12 20.25C10.108 20.25 8.75 20.249 7.698 20.135C6.66 20.022 6.01 19.807 5.502 19.438C5.1413 19.1759 4.82409 18.8587 4.562 18.498C4.192 17.99 3.977 17.34 3.865 16.302C3.751 15.25 3.75 13.892 3.75 12C3.75 10.108 3.751 8.75 3.865 7.698C3.977 6.66 4.193 6.01 4.562 5.502C4.824 5.142 5.142 4.824 5.502 4.562C6.01 4.192 6.66 3.977 7.698 3.865C8.75 3.751 10.108 3.75 12 3.75H15Z" fill="#9197B3"/>
<path d="M6.327 14.527C6.24748 14.7044 6.23997 14.9058 6.30605 15.0886C6.37213 15.2715 6.50664 15.4215 6.68121 15.5071C6.85578 15.5927 7.05677 15.6072 7.2418 15.5475C7.42682 15.4878 7.58142 15.3585 7.673 15.187L9.133 12.21C9.586 11.288 10.917 11.333 11.306 12.284C12.185 14.433 15.19 14.534 16.213 12.45L17.673 9.473C17.7525 9.29558 17.76 9.09421 17.694 8.91136C17.6279 8.7285 17.4934 8.57846 17.3188 8.49286C17.1442 8.40726 16.9432 8.3928 16.7582 8.45252C16.5732 8.51225 16.4186 8.64149 16.327 8.813L14.867 11.79C14.414 12.712 13.083 12.667 12.694 11.716C11.815 9.567 8.81 9.466 7.787 11.55L6.327 14.527Z" fill="#9197B3"/>
<path fill-rule="evenodd" clip-rule="evenodd" d="M17.5 4C17.5 4.66304 17.7634 5.29893 18.2322 5.76777C18.7011 6.23661 19.337 6.5 20 6.5C20.663 6.5 21.2989 6.23661 21.7678 5.76777C22.2366 5.29893 22.5 4.66304 22.5 4C22.5 3.33696 22.2366 2.70107 21.7678 2.23223C21.2989 1.76339 20.663 1.5 20 1.5C19.337 1.5 18.7011 1.76339 18.2322 2.23223C17.7634 2.70107 17.5 3.33696 17.5 4ZM19 4C19 4.26522 19.1054 4.51957 19.2929 4.70711C19.4804 4.89464 19.7348 5 20 5C20.2652 5 20.5196 4.89464 20.7071 4.70711C20.8946 4.51957 21 4.26522 21 4C21 3.73478 20.8946 3.48043 20.7071 3.29289C20.5196 3.10536 20.2652 3 20 3C19.7348 3 19.4804 3.10536 19.2929 3.29289C19.1054 3.48043 19 3.73478 19 4Z" fill="#9197B3"/>
</svg>
