<svg width="24" height="24" viewBox="0 0 24 24" fill="none" xmlns="http://www.w3.org/2000/svg">
<path d="M15 20C12.2 20 10 17.8 10 15C10 12.2 12.2 10 15 10C17.8 10 20 12.2 20 15C20 17.8 17.8 20 15 20ZM15 12C13.3 12 12 13.3 12 15C12 16.7 13.3 18 15 18C16.7 18 18 16.7 18 15C18 13.3 16.7 12 15 12Z" fill="#9197B3"/>
<path d="M21 22C20.7 22 20.5 21.9 20.3 21.7L17.8 19.2C17.4 18.8 17.4 18.2 17.8 17.8C18.2 17.4 18.8 17.4 19.2 17.8L21.7 20.3C22.1 20.7 22.1 21.3 21.7 21.7C21.5 21.9 21.3 22 21 22ZM20 7H4C3.4 7 3 6.6 3 6C3 5.4 3.4 5 4 5H20C20.6 5 21 5.4 21 6C21 6.6 20.6 7 20 7ZM8 13H4C3.4 13 3 12.6 3 12C3 11.4 3.4 11 4 11H8C8.6 11 9 11.4 9 12C9 12.6 8.6 13 8 13ZM8 19H4C3.4 19 3 18.6 3 18C3 17.4 3.4 17 4 17H8C8.6 17 9 17.4 9 18C9 18.6 8.6 19 8 19Z" fill="#9197B3"/>
</svg>
