<svg width="40" height="43" viewBox="0 0 40 43" fill="none" xmlns="http://www.w3.org/2000/svg">
<g clip-path="url(#clip0_314_132)">
<path d="M2.29497 6.14453C1.45505 7.36364 0.816734 8.73249 0.429688 10.2037H6.35439L2.29497 6.14453Z" fill="#29337A"/>
<path d="M9.37798 1.02112C7.87731 1.45815 6.48751 2.15553 5.26367 3.06513L9.37798 7.17944V1.02112Z" fill="#29337A"/>
<path d="M5.56836 24.2012C6.7163 25.0045 7.99881 25.6264 9.37668 26.0276V20.3935L5.56836 24.2012Z" fill="#29337A"/>
<path d="M0.578125 17.3704C1.00878 18.7654 1.66871 20.0596 2.51209 21.2108L6.35248 17.3704H0.578125Z" fill="#29337A"/>
<path d="M2.5086 5.8421C2.43579 5.94164 2.36402 6.04261 2.29368 6.14462L6.35311 10.2038H0.428401C0.332382 10.5693 0.254016 10.9417 0.189453 11.3193H7.98626L2.5086 5.8421Z" fill="white"/>
<path d="M5.26758 23.9864C5.36668 24.0602 5.46853 24.1305 5.56966 24.2013L9.37798 20.3934V26.0275C9.74386 26.1345 10.1154 26.2268 10.4935 26.301V18.7606L5.26758 23.9864Z" fill="white"/>
<path d="M0.285156 16.2549C0.365997 16.6329 0.461412 17.0051 0.574314 17.3704H6.34872L2.50834 21.2108C2.92601 21.7814 3.38917 22.317 3.89242 22.8122L10.4497 16.2549H0.285156Z" fill="white"/>
<path d="M9.37685 1.02116V7.17948L5.26249 3.06539C4.69528 3.48719 4.16509 3.95547 3.67383 4.4624L10.4921 11.2807V0.74762C10.1143 0.822301 9.74273 0.914856 9.37685 1.02116Z" fill="white"/>
<path d="M9.3809 17.3314L9.3418 17.3707H9.3809V17.3314Z" fill="#D32030"/>
<path d="M10.4551 16.2551H10.4941V16.2159L10.4551 16.2551Z" fill="#D32030"/>
<path d="M15.4693 11.3195H15.4316V11.3573L15.4693 11.3195Z" fill="#D32030"/>
<path d="M9.42125 10.2042L9.38281 10.1655V10.2042H9.42125Z" fill="#D32030"/>
<path d="M10.4961 11.281V11.3195H10.5346L10.4961 11.281Z" fill="#D32030"/>
<path d="M16.5449 23.1443V26.064C17.9407 25.6733 19.2421 25.0574 20.4061 24.2549L17.2425 21.0913C16.9897 21.9795 16.8972 22.4387 16.5449 23.1443Z" fill="#252F6C"/>
<path d="M17.2592 6.46529L20.7127 3.01173C19.472 2.10312 18.0645 1.41069 16.5449 0.984985V3.98424C16.9511 4.7976 16.9853 5.41562 17.2592 6.46529Z" fill="#252F6C"/>
<path d="M23.4827 21.2868C24.3524 20.1168 25.0303 18.7961 25.4705 17.3705H19.5664L23.4827 21.2868Z" fill="#252F6C"/>
<path d="M25.6211 10.2041C25.2258 8.70174 24.5684 7.30721 23.7019 6.06897L19.5664 10.2041H25.6211Z" fill="#252F6C"/>
<path d="M18.0156 16.4757L18.9106 17.3707L23.1948 21.6549C23.2921 21.5332 23.3887 21.4119 23.4817 21.287L19.5655 17.3707H25.4696C25.5821 17.0057 25.6777 16.6333 25.7583 16.2552H18.0993C18.0868 16.4134 18.0306 16.3186 18.0156 16.4757Z" fill="#E7E7E7"/>
<path d="M17.1189 7.11847L21.0019 3.23508C20.9046 3.15963 20.8071 3.08456 20.7078 3.01175L17.2542 6.46531C17.29 6.60186 17.0856 6.97862 17.1189 7.11847Z" fill="#E7E7E7"/>
<path d="M16.5413 3.74426V0.984779C16.1758 0.88238 15.8038 0.7956 15.4258 0.724823V2.07085C15.8408 2.52081 16.2129 3.08598 16.5413 3.74426Z" fill="#E7E7E7"/>
<path d="M17.9278 11.3194H25.8576C25.7932 10.9418 25.7147 10.5695 25.6187 10.2039H19.564L23.6995 6.0688C23.2929 5.48801 22.8411 4.94181 22.3475 4.4357L17.6895 9.09335C17.8149 9.93822 17.871 10.4289 17.9278 11.3194Z" fill="#E7E7E7"/>
<path d="M17.0488 20.9027L20.4008 24.255C20.9583 23.8711 21.4834 23.4437 21.9733 22.9798L17.5642 18.5705C17.4235 19.386 17.2565 20.1736 17.0488 20.9027Z" fill="#E7E7E7"/>
<path d="M15.4258 24.8238V26.3241C15.8038 26.2537 16.1756 26.1665 16.5413 26.0641V23.1444C16.2126 23.803 15.8406 24.3745 15.4258 24.8238Z" fill="#E7E7E7"/>
<path d="M17.6903 9.09329L22.3479 4.43564C21.9285 4.00498 21.479 3.60419 21.0035 3.23502L17.3438 6.89546C17.5063 7.57535 17.5803 8.35357 17.6903 9.09329Z" fill="#D71F28"/>
<path d="M12.3711 0.516058C12.5881 0.505554 12.8044 0.5 13.021 0.5C12.8032 0.5 12.5864 0.505554 12.3711 0.516058Z" fill="#D32030"/>
<path d="M13.0206 26.5494C12.804 26.5494 12.5877 26.5435 12.3711 26.533C12.5864 26.5438 12.8028 26.5494 13.0206 26.5494Z" fill="#D32030"/>
<path d="M13.0215 26.5494C13.8433 26.5494 14.6457 26.4698 15.4252 26.324V24.8238C14.741 25.5653 13.9406 26.5494 13.0215 26.5494Z" fill="#D32030"/>
<path d="M25.8623 11.3193H18.0355C18.1392 12.9528 18.1266 14.6326 17.998 16.255H25.7632C25.9511 15.3741 26.0519 14.4615 26.0519 13.5249C26.0519 12.7726 25.9849 12.0368 25.8623 11.3193Z" fill="#D71F28"/>
<path d="M18.0203 16.4757C17.9479 17.2453 17.6958 17.845 17.5703 18.5709L21.9793 22.98C22.4155 22.5666 22.8233 22.1244 23.1993 21.6549L18.9152 17.3705L18.0203 16.4757Z" fill="#D71F28"/>
<path d="M15.4291 2.16763V0.72498C14.6499 0.579576 13.8474 0.5 13.0254 0.5C13.9445 0.5 14.7449 1.42626 15.4291 2.16763Z" fill="#D32030"/>
<path d="M16.5449 23.7076C16.8972 23.0018 17.1993 22.1893 17.4523 21.3013L16.5449 20.3939V23.7076Z" fill="#29337A"/>
<path d="M17.5652 6.15917C17.2908 5.1095 16.9511 4.15525 16.5449 3.34189V7.17898L17.5652 6.15917Z" fill="#29337A"/>
<path d="M18.2701 16.7283C18.2849 16.5711 18.2983 16.4134 18.311 16.255H17.7969L18.2701 16.7283Z" fill="white"/>
<path d="M16.5413 7.17899V3.34168C16.2126 2.6834 15.8408 2.11785 15.4258 1.66827V8.8123L17.666 6.57213C17.6322 6.43228 17.5968 6.29529 17.5615 6.15874L16.5413 7.17899Z" fill="white"/>
<path d="M15.4609 11.3195H18.3442C18.2877 10.429 18.1976 9.5529 18.0723 8.70825L15.4609 11.3195Z" fill="white"/>
<path d="M15.4258 25.3809C15.8408 24.9309 16.2126 24.3657 16.5413 23.7075V20.3938L17.4486 21.3011C17.6567 20.5717 17.8313 19.7924 17.9724 18.977L15.4258 16.4306V25.3809Z" fill="white"/>
<path d="M15.4282 25.381V16.4307L17.9747 18.9773C18.0999 18.2511 18.1985 17.498 18.2706 16.7282L17.7974 16.255H18.3115C18.44 14.6326 18.4526 12.9528 18.349 11.3193H15.4657L18.0769 8.70811C17.9669 7.96816 17.8308 7.25247 17.6681 6.57236L15.4283 8.81254V1.66851C14.744 0.926917 13.9436 0.5 13.0245 0.5C12.808 0.5 12.5916 0.505554 12.3747 0.516058C11.734 0.54812 11.1058 0.626926 10.4925 0.747857V11.2809L3.67403 4.46258C3.25509 4.89489 2.8654 5.35552 2.50876 5.84232L6.87049 10.2041L7.98637 11.3195H0.189619C0.0674774 12.0368 0 12.7726 0 13.525C0 14.4617 0.101189 15.3742 0.288718 16.255H10.4534L3.89615 22.8123C4.32554 23.2341 4.7827 23.6269 5.26665 23.9864L10.4923 18.7607V26.3012C11.1056 26.4222 11.7343 26.5009 12.3749 26.533C12.5914 26.5435 12.8078 26.5495 13.0244 26.5495C13.9436 26.5495 14.744 26.1226 15.4282 25.381Z" fill="#E51D35"/>
<path d="M25.33 41.41C32.83 41.41 38.91 35.33 38.91 27.83C38.91 20.33 32.83 14.25 25.33 14.25C17.83 14.25 11.75 20.33 11.75 27.83C11.75 35.33 17.83 41.41 25.33 41.41Z" fill="#F0F0F0" stroke="white" stroke-width="0.5"/>
<path d="M25.332 14.5V41.1629C32.695 41.1629 38.6637 35.1942 38.6637 27.8316C38.6637 20.4682 32.695 14.5 25.332 14.5Z" fill="#252F6B"/>
<path d="M25.3312 14.5C17.9687 14.5 12 20.4684 12 27.8314C12 35.194 17.9687 41.1626 25.3312 41.1626C32.6942 41.1626 32.6942 14.5 25.3312 14.5Z" fill="#273375"/>
<path d="M21.147 34.9361L22.046 33.8154L20.6572 34.0669L20.1754 32.7216L19.6516 34.0669L18.2337 33.8154L19.1349 34.9114L18.1992 36.0063L19.6253 35.7823L20.1063 37.0998L20.6302 35.7829L22.0847 36.0428L21.147 34.9361Z" fill="#F3F4F5"/>
<path d="M31.7736 35.926L32.2834 35.2909L31.4962 35.4334L31.2232 34.6712L30.9263 35.4334L30.1229 35.2909L30.6335 35.9116L30.1035 36.5324L30.9114 36.4053L31.184 37.1515L31.4808 36.4057L32.3051 36.5531L31.7736 35.926Z" fill="#F3F4F5"/>
<path d="M31.7736 21.8929L32.2834 21.2576L31.4962 21.4003L31.2232 20.6381L30.9263 21.4003L30.1229 21.2576L30.6335 21.8787L30.1035 22.4991L30.9114 22.3722L31.184 23.1188L31.4808 22.3726L32.3051 22.5197L31.7736 21.8929Z" fill="#F3F4F5"/>
<path d="M35.0709 25.5231L35.5803 24.8879L34.7935 25.0306L34.5204 24.2684L34.2237 25.0306L33.4198 24.8879L33.9304 25.5091L33.4004 26.1296L34.2083 26.0024L34.4809 26.7491L34.7777 26.0029L35.602 26.15L35.0709 25.5231Z" fill="#F3F4F5"/>
<path d="M28.9199 27.137L29.4297 26.5019L28.6425 26.6446L28.3694 25.8824L28.0727 26.6446L27.2694 26.5019L27.7798 27.1226L27.25 27.7434L28.0579 27.6165L28.3305 28.3625L28.6273 27.6169L29.4516 27.7641L28.9199 27.137Z" fill="#F3F4F5"/>
<path d="M14.8009 19.6624C14.5917 19.932 14.3919 20.2088 14.2031 20.494H15.6322L14.8009 19.6624Z" fill="#29337A"/>
<path d="M21.6855 27.8314H22.9698L21.6855 26.5471V27.8314Z" fill="#29337A"/>
<path d="M17.4266 17.097C17.1207 17.3226 16.8262 17.562 16.541 17.8122L17.4266 18.6974V17.097Z" fill="#29337A"/>
<path d="M16.1406 27.8314H17.4253V26.5468L16.1406 27.8314Z" fill="#29337A"/>
<path d="M25.3326 14.5C24.0675 14.5 22.8454 14.68 21.6855 15.0094V18.6973L25.333 15.05L25.3326 14.5Z" fill="#29337A"/>
<path d="M25.3333 26.6024V24.7515H23.4824L25.3333 26.6024Z" fill="#29337A"/>
<path d="M12.5501 27.8314L15.6306 24.7515H12.3618C12.1276 25.7406 12 26.7709 12 27.8314H12.5501Z" fill="#29337A"/>
<path d="M23.4766 20.494H25.3287V18.6423L23.4766 20.494Z" fill="#29337A"/>
<path d="M25.3342 26.9911V26.6023L23.4833 24.7514H25.3342V24.0885H22.4316L25.3342 26.9911Z" fill="white"/>
<path d="M15.6345 20.4938H14.2055C14.0628 20.71 13.9272 20.9313 13.7969 21.1561H16.6043L14.938 19.4902C14.8923 19.5471 14.8475 19.6045 14.803 19.6619L15.6345 20.4938Z" fill="white"/>
<path d="M17.4296 26.5466V27.8313H18.0921V25.5769L15.8379 27.8313H16.145L17.4296 26.5466Z" fill="white"/>
<path d="M21.6876 15.0091C21.4643 15.0724 21.2437 15.1415 21.0254 15.2158V19.6669L25.3351 15.3574V15.0503L21.6876 18.697V15.0091Z" fill="white"/>
<path d="M17.4073 24.7514L17.4306 24.7281L18.0699 24.0888H12.54C12.4762 24.3075 12.4179 24.5283 12.3652 24.7514H15.6341L12.5535 27.8314H14.3271L17.4073 24.7514Z" fill="white"/>
<path d="M25.3345 21.1563V20.4938H23.4823L25.3345 18.6421V16.8688L21.0469 21.1563H25.3345Z" fill="white"/>
<path d="M17.4286 18.6973L16.5431 17.8122C16.229 18.0882 15.9275 18.3786 15.6406 18.683L17.4286 20.471L17.4476 20.4904L18.0911 21.1339V16.6404C17.8658 16.7866 17.6442 16.9376 17.4288 17.0967L17.4286 18.6973Z" fill="white"/>
<path d="M21.6879 26.5471L22.9721 27.8314H24.6641L21.0254 24.193V27.8314H21.6879V26.5471Z" fill="white"/>
<path d="M23.0919 24.7513L22.4296 24.0887H25.3322V21.1565H21.0446L21.0225 21.179V21.1565H21.0446L25.3322 16.8693V15.3575L21.0222 19.6672V15.216C19.9805 15.572 18.9975 16.0523 18.09 16.6407V21.1339L18.113 21.1564H18.09V21.1339L17.4465 20.4905L17.4503 20.4943H17.4278V20.4713L15.6398 18.6833C15.3944 18.9431 15.1593 19.2121 14.9351 19.4908L16.6014 21.1567H13.794C13.2635 22.0711 12.8394 23.0537 12.5371 24.0889H18.0671L18.09 24.0655V24.0889H18.0671L17.4278 24.7282V24.7516H17.4044L14.3242 27.8314H15.836L18.0903 25.5769V27.8314H21.0225V24.1929L24.6609 27.8314H25.1613C25.2183 27.7718 25.2765 27.7127 25.3324 27.6514V26.991L23.0919 24.7513Z" fill="#D32030"/>
<path d="M17.4296 24.7513V24.7277L17.4062 24.7513H17.4296Z" fill="#D32030"/>
<path d="M18.0915 24.065L18.0684 24.0884H18.0915V24.065Z" fill="#D32030"/>
<path d="M21.0195 21.1791L21.0419 21.1566H21.0195V21.1791Z" fill="#D32030"/>
<path d="M17.4277 20.494H17.4505L17.4467 20.4905L17.4277 20.4711V20.494Z" fill="#D32030"/>
<path d="M18.1108 21.1566L18.0879 21.1338V21.1566H18.1108Z" fill="#D32030"/>
</g>
<defs>
<clipPath id="clip0_314_132">
<rect width="40" height="42" fill="white" transform="translate(0 0.5)"/>
</clipPath>
</defs>
</svg>
