<svg id="SvgjsSvg1028" width="288" height="288" xmlns="http://www.w3.org/2000/svg" version="1.1" xmlns:xlink="http://www.w3.org/1999/xlink" xmlns:svgjs="http://svgjs.com/svgjs"><defs id="SvgjsDefs1029"></defs><g id="SvgjsG1030"><svg xmlns="http://www.w3.org/2000/svg" xmlns:xlink="http://www.w3.org/1999/xlink" data-name="Layer 2" viewBox="0 0 64 64" width="288" height="288"><defs><linearGradient id="c" x1="32" x2="32" y1="4" y2="32" gradientUnits="userSpaceOnUse"><stop offset="0" stop-color="#ffc033" class="stopColorffc033 svgShape"></stop><stop offset="1" stop-color="#ef8e2e" class="stopColoref8e2e svgShape"></stop></linearGradient><linearGradient id="a" x1="11" x2="11" y1="54" y2="32" gradientUnits="userSpaceOnUse"><stop offset="0" stop-color="#009e77" class="stopColor009e77 svgShape"></stop><stop offset="1" stop-color="#00d291" class="stopColor00d291 svgShape"></stop></linearGradient><linearGradient id="d" x1="39" x2="39" y1="55" y2="33" xlink:href="#a"></linearGradient><linearGradient id="b" x1="25" x2="25" y1="39" y2="61" gradientUnits="userSpaceOnUse"><stop offset="0" stop-color="#ff4d6c" class="stopColorff4d6c svgShape"></stop><stop offset="1" stop-color="#ff0825" class="stopColorff0825 svgShape"></stop></linearGradient><linearGradient id="e" x1="53" x2="53" xlink:href="#b"></linearGradient></defs><circle cx="32" cy="18" r="14" fill="url(#c)"></circle><path fill="#b2500d" d="M33.29 17H33v-4h.29a2 2 0 0 1 2 2h2a4 4 0 0 0-4-4H33V8.57h-2V11h-.29a4 4 0 0 0 0 8H31v4h-.29a2 2 0 0 1-2-2h-2a4 4 0 0 0 4 4H31v2.43h2V25h.29a4 4 0 0 0 0-8Zm-2.58 0a2 2 0 0 1 0-4H31v4Zm2.58 6H33v-4h.29a2 2 0 0 1 0 4Z" class="colorb2500d svgShape"></path><path fill="url(#a)" d="M16 37h-4v-5h-2v5H6a1 1 0 0 0-1 1v10a1 1 0 0 0 1 1h4v5h2v-5h4a1 1 0 0 0 1-1V38a1 1 0 0 0-1-1Z"></path><path fill="url(#d)" d="M44 38h-4v-5h-2v5h-4a1 1 0 0 0-1 1v10a1 1 0 0 0 1 1h4v5h2v-5h4a1 1 0 0 0 1-1V39a1 1 0 0 0-1-1Z"></path><path fill="url(#b)" d="M30 44h-4v-5h-2v5h-4a1 1 0 0 0-1 1v10a1 1 0 0 0 1 1h4v5h2v-5h4a1 1 0 0 0 1-1V45a1 1 0 0 0-1-1Z"></path><path fill="url(#e)" d="M58 44h-4v-5h-2v5h-4a1 1 0 0 0-1 1v10a1 1 0 0 0 1 1h4v5h2v-5h4a1 1 0 0 0 1-1V45a1 1 0 0 0-1-1Z"></path></svg></g></svg>