<svg width="35" height="34" viewBox="0 0 35 34" fill="none" xmlns="http://www.w3.org/2000/svg">
<rect x="0.333374" width="34" height="34" rx="17" fill="white"/>
<path d="M25.3334 25.5H9.33337C8.23337 25.5 7.33337 24.6 7.33337 23.5V13.05C7.33337 12.4 7.63337 11.8 8.18337 11.4L17.3334 5L26.4834 11.4C27.0334 11.75 27.3334 12.4 27.3334 13.05V23.5C27.3334 24.6 26.4334 25.5 25.3334 25.5Z" fill="#78909C"/>
<path d="M12.3334 5.5H22.3334V21H12.3334V5.5Z" fill="#AED581"/>
<path d="M11.8334 5V21.5H22.8334V5H11.8334ZM21.8334 20.5H12.8334V6H21.8334V20.5Z" fill="#558B2F"/>
<path d="M22.3334 6.5C22.3334 7.35 22.1834 8 21.3334 8C20.4834 8 19.8334 7.35 19.8334 6.5C19.8334 5.65 20.4834 5.5 21.3334 5.5C22.1834 5.5 22.3334 5.65 22.3334 6.5ZM13.3334 5.5C14.1834 5.5 14.8334 5.65 14.8334 6.5C14.8334 7.35 14.1834 8 13.3334 8C12.4834 8 12.3334 7.35 12.3334 6.5C12.3334 5.65 12.4834 5.5 13.3334 5.5Z" fill="#558B2F"/>
<path d="M17.3334 10C17.8857 10 18.3334 9.55228 18.3334 9C18.3334 8.44772 17.8857 8 17.3334 8C16.7811 8 16.3334 8.44772 16.3334 9C16.3334 9.55228 16.7811 10 17.3334 10Z" fill="#558B2F"/>
<path d="M17.3334 18C18.9902 18 20.3334 16.6569 20.3334 15C20.3334 13.3431 18.9902 12 17.3334 12C15.6765 12 14.3334 13.3431 14.3334 15C14.3334 16.6569 15.6765 18 17.3334 18Z" fill="#558B2F"/>
<path d="M25.3334 25.5H9.33337C8.23337 25.5 7.33337 24.6 7.33337 23.5V13.5L17.3334 20L27.3334 13.5V23.5C27.3334 24.6 26.4334 25.5 25.3334 25.5Z" fill="#CFD8DC"/>
</svg>
