<svg width="50" height="50" viewBox="0 0 50 50" fill="none" xmlns="http://www.w3.org/2000/svg">
<rect width="50" height="50" rx="25" fill="#F5F7FA"/>
<path d="M24.0909 36C22.2119 36 20.6818 34.4582 20.6818 32.5625C20.6818 32.183 20.9872 31.875 21.3636 31.875C21.7399 31.875 22.0454 32.183 22.0454 32.5625C22.0454 33.7002 22.9636 34.625 24.0909 34.625C25.2181 34.625 26.1363 33.7002 26.1363 32.5625C26.1363 32.183 26.4418 31.875 26.8181 31.875C27.1945 31.875 27.5 32.183 27.5 32.5625C27.5 34.4582 25.97 36 24.0909 36Z" fill="#FE5C73"/>
<path d="M31.5909 33.25H16.5909C15.7136 33.25 15 32.5304 15 31.6459C14.9999 31.4142 15.0495 31.1852 15.1456 30.9748C15.2416 30.7643 15.3817 30.5773 15.5563 30.4267C15.5791 30.4065 15.6036 30.3882 15.6291 30.3716C16.9636 29.1974 17.7273 27.508 17.7273 25.7241V23.1666C17.7273 19.6284 20.5827 16.75 24.0909 16.75C24.2364 16.75 24.3937 16.7527 24.5392 16.7775C24.9109 16.8398 25.1619 17.1946 25.1 17.5686C25.0382 17.9426 24.68 18.1957 24.3155 18.1332C24.2427 18.1213 24.1628 18.125 24.0909 18.125C21.3346 18.125 19.0909 20.3864 19.0909 23.1666V25.7241C19.0909 27.9388 18.1281 30.0344 16.4519 31.4725C16.4382 31.4836 16.4264 31.4937 16.4118 31.5037C16.3802 31.5442 16.3632 31.5944 16.3636 31.6459C16.3636 31.7704 16.4674 31.875 16.5909 31.875H31.5909C31.7146 31.875 31.8183 31.7704 31.8183 31.6459C31.8183 31.5816 31.7946 31.5349 31.7692 31.5037C31.7556 31.4937 31.7437 31.4836 31.7301 31.4725C30.0528 30.0334 29.091 27.9388 29.091 25.7241V24.7251C29.091 24.3456 29.3965 24.0376 29.7728 24.0376C30.1492 24.0376 30.4546 24.3456 30.4546 24.7251V25.7241C30.4546 27.509 31.2192 29.1992 32.5555 30.3744C32.58 30.3909 32.6037 30.4084 32.6254 30.4276C32.8001 30.578 32.9404 30.7648 33.0365 30.9751C33.1325 31.1854 33.1822 31.4143 33.1819 31.6459C33.1819 32.5304 32.4683 33.25 31.5909 33.25Z" fill="#FE5C73"/>
<path d="M30.4547 23.1666C27.9483 23.1666 25.9092 21.1106 25.9092 18.5834C25.9092 16.0561 27.9483 14 30.4547 14C32.9611 14 35.0001 16.0561 35.0001 18.5834C35.0001 21.1106 32.9611 23.1666 30.4547 23.1666ZM30.4547 15.375C28.7 15.375 27.2728 16.8141 27.2728 18.5834C27.2728 20.3525 28.7 21.7916 30.4547 21.7916C32.2092 21.7916 33.6364 20.3525 33.6364 18.5834C33.6364 16.8141 32.2092 15.375 30.4547 15.375Z" fill="#FE5C73"/>
</svg>
