<svg width="34" height="34" viewBox="0 0 34 34" fill="none" xmlns="http://www.w3.org/2000/svg">
<rect width="34" height="34" rx="17" fill="white"/>
<path d="M11 25V15H27V25C27 26.1 26.1 27 25 27H13C11.9 27 11 26.1 11 25Z" fill="#CFD8DC"/>
<path d="M27 13V16H11V13C11 11.9 11.9 11 13 11H25C26.1 11 27 11.9 27 13Z" fill="#78909C"/>
<path d="M23.5 14.5C24.3284 14.5 25 13.8284 25 13C25 12.1716 24.3284 11.5 23.5 11.5C22.6716 11.5 22 12.1716 22 13C22 13.8284 22.6716 14.5 23.5 14.5Z" fill="#37474F"/>
<path d="M15 14.5C15.8284 14.5 16.5 13.8284 16.5 13C16.5 12.1716 15.8284 11.5 15 11.5C14.1716 11.5 13.5 12.1716 13.5 13C13.5 13.8284 14.1716 14.5 15 14.5Z" fill="#37474F"/>
<path d="M23.5 10C22.95 10 22.5 10.45 22.5 11V13C22.5 13.55 22.95 14 23.5 14C24.05 14 24.5 13.55 24.5 13V11C24.5 10.45 24.05 10 23.5 10ZM15 10C14.45 10 14 10.45 14 11V13C14 13.55 14.45 14 15 14C15.55 14 16 13.55 16 13V11C16 10.45 15.55 10 15 10Z" fill="#B0BEC5"/>
<path d="M21 22H23V24H21V22ZM18 22H20V24H18V22ZM15 22H17V24H15V22ZM21 19H23V21H21V19ZM18 19H20V21H18V19ZM15 19H17V21H15V19Z" fill="#90A4AE"/>
<path d="M13 18.5C16.3137 18.5 19 15.8137 19 12.5C19 9.18629 16.3137 6.5 13 6.5C9.68629 6.5 7 9.18629 7 12.5C7 15.8137 9.68629 18.5 13 18.5Z" fill="#F44336"/>
<path d="M13 17C15.4853 17 17.5 14.9853 17.5 12.5C17.5 10.0147 15.4853 8 13 8C10.5147 8 8.5 10.0147 8.5 12.5C8.5 14.9853 10.5147 17 13 17Z" fill="#EEEEEE"/>
<path d="M12.5 9H13.5V12.5H12.5V9Z" fill="white"/>
<path d="M15.259 14.05L14.5875 14.722L12.6785 12.813L13.3505 12.1415L15.259 14.05Z" fill="white"/>
<path d="M13 13.25C13.4142 13.25 13.75 12.9142 13.75 12.5C13.75 12.0858 13.4142 11.75 13 11.75C12.5858 11.75 12.25 12.0858 12.25 12.5C12.25 12.9142 12.5858 13.25 13 13.25Z" fill="white"/>
</svg>
