<svg width="24" height="24" viewBox="0 0 24 24" fill="none" xmlns="http://www.w3.org/2000/svg">
<g clip-path="url(#clip0_48_42)">
<path d="M22.3148 10.4636C22.2293 7.85495 21.1514 5.37724 19.3013 3.53625C17.3501 1.58475 14.757 0.510376 12 0.510376C6.43163 0.510376 1.88175 4.9425 1.68563 10.4636C1.25627 10.6538 0.89128 10.9644 0.634894 11.3579C0.378508 11.7513 0.241727 12.2107 0.241127 12.6803V15.4035C0.241822 16.0466 0.497588 16.6631 0.952307 17.1178C1.40703 17.5725 2.02356 17.8283 2.66663 17.829C3.0827 17.8285 3.48159 17.663 3.77579 17.3688C4.07 17.0746 4.23551 16.6757 4.236 16.2596V11.8238C4.236 11.0111 3.61275 10.3485 2.82038 10.2698C3.11288 5.45963 7.11713 1.63538 12 1.63538C14.457 1.63538 16.7674 2.59313 18.5063 4.332C20.103 5.92875 21.0375 8.01 21.1781 10.2701C20.3865 10.3496 19.7644 11.0119 19.7644 11.8238V16.2593C19.7644 17.0786 20.3974 17.7454 21.1991 17.8148V18.9356C21.1984 19.5426 20.957 20.1244 20.5278 20.5536C20.0986 20.9827 19.5167 21.224 18.9098 21.2246H17.2144C17.1001 20.8914 16.8843 20.6023 16.5973 20.398C16.3103 20.1937 15.9665 20.0843 15.6143 20.0854H13.8668C13.6159 20.0854 13.3751 20.1386 13.1546 20.2414C12.8594 20.3778 12.6093 20.5958 12.4339 20.8697C12.2585 21.1436 12.165 21.4619 12.1646 21.7871C12.1646 22.2424 12.342 22.6699 12.6634 22.9898C12.8209 23.1485 13.0084 23.2745 13.215 23.3602C13.4215 23.446 13.6431 23.4898 13.8668 23.4893H15.6143C16.3388 23.4893 16.9774 23.0209 17.2155 22.3496H18.9098C20.7926 22.3496 22.3241 20.8181 22.3241 18.9356V17.6145C22.7509 17.4232 23.1134 17.1128 23.3679 16.7204C23.6225 16.328 23.7582 15.8705 23.7589 15.4028V12.6795C23.7589 11.6918 23.1641 10.8413 22.3148 10.4636ZM3.11063 11.8238V16.2593C3.11063 16.5041 2.9115 16.7036 2.66625 16.7036C2.32146 16.7032 1.9909 16.5661 1.7471 16.3223C1.50329 16.0785 1.36615 15.7479 1.36575 15.4031V12.6799C1.36615 12.3351 1.50329 12.0045 1.7471 11.7607C1.9909 11.5169 2.32146 11.3798 2.66625 11.3794C2.9115 11.3794 3.11063 11.5789 3.11063 11.8238ZM16.1786 21.9079C16.1507 22.037 16.0795 22.1528 15.9767 22.2359C15.874 22.319 15.746 22.3646 15.6139 22.365H13.8664C13.7126 22.365 13.5683 22.305 13.458 22.1948C13.4043 22.1415 13.3618 22.0781 13.3328 22.0082C13.3039 21.9384 13.289 21.8635 13.2893 21.7879C13.2896 21.635 13.3506 21.4884 13.4587 21.3804C13.5669 21.2723 13.7135 21.2114 13.8664 21.2111H15.6139C15.7676 21.2111 15.912 21.2708 16.0219 21.381C16.1306 21.4894 16.1906 21.6341 16.1906 21.7879C16.191 21.8291 16.1865 21.8704 16.1786 21.9079ZM22.6339 15.4031C22.6335 15.7479 22.4963 16.0785 22.2525 16.3223C22.0087 16.5661 21.6782 16.7032 21.3334 16.7036C21.2156 16.7035 21.1026 16.6567 21.0193 16.5734C20.936 16.49 20.8891 16.3771 20.889 16.2593V11.8238C20.889 11.5789 21.0881 11.3794 21.3334 11.3794C21.6782 11.3798 22.0087 11.5169 22.2525 11.7607C22.4963 12.0045 22.6335 12.3351 22.6339 12.6799V15.4031Z" fill="#9197B3"/>
<path d="M15.6424 15.597C16.2743 15.5963 16.8802 15.345 17.327 14.8981C17.7738 14.4513 18.0252 13.8454 18.0259 13.2135V8.35687C18.0259 7.72162 17.7776 7.12312 17.3269 6.67237C16.8761 6.22162 16.278 5.97337 15.6424 5.97337H8.35762C7.72569 5.97407 7.11984 6.22541 6.673 6.67225C6.22616 7.11909 5.97482 7.72494 5.97412 8.35687V13.2135C5.97482 13.8454 6.22616 14.4513 6.673 14.8981C7.11984 15.345 7.72569 15.5963 8.35762 15.597H8.40225V16.8555C8.4015 17.0092 8.43115 17.1615 8.48948 17.3036C8.54781 17.4458 8.63367 17.5751 8.74212 17.6839C8.85058 17.7928 8.97949 17.8792 9.12144 17.938C9.26338 17.9969 9.41557 18.0271 9.56925 18.027C9.72282 18.0273 9.87488 17.9967 10.0164 17.937C10.1578 17.8772 10.2859 17.7896 10.3927 17.6794L12.4864 15.597H15.6424ZM11.8582 14.6355L9.5925 16.8889C9.58237 16.8994 9.57487 16.9072 9.5535 16.8979C9.52762 16.8874 9.52762 16.8705 9.52762 16.8555V15.0345C9.52762 14.8853 9.46836 14.7422 9.36287 14.6368C9.25738 14.5313 9.11431 14.472 8.96512 14.472H8.358C8.02434 14.4716 7.70447 14.3389 7.46854 14.103C7.23261 13.867 7.09989 13.5472 7.0995 13.2135V8.35687C7.09989 8.02322 7.23261 7.70335 7.46854 7.46742C7.70447 7.23149 8.02434 7.09877 8.358 7.09837H15.6427C15.978 7.09837 16.2934 7.22962 16.5319 7.46775C16.7704 7.70625 16.9012 8.022 16.9012 8.35687V13.2135C16.9008 13.5472 16.7681 13.867 16.5322 14.103C16.2963 14.3389 15.9764 14.4716 15.6427 14.472H12.255C12.1061 14.472 11.9636 14.5309 11.8582 14.6355Z" fill="#9197B3"/>
<path d="M9.26737 10.0451C8.80987 10.0451 8.4375 10.4179 8.4375 10.875C8.4375 11.3321 8.81025 11.7049 9.26737 11.7049C9.72525 11.7049 10.098 11.3321 10.098 10.875C10.098 10.4179 9.72562 10.0451 9.26737 10.0451ZM11.9996 10.0451C11.5421 10.0451 11.1697 10.4179 11.1697 10.875C11.1697 11.3321 11.5425 11.7049 11.9996 11.7049C12.4579 11.7049 12.8303 11.3321 12.8303 10.875C12.8303 10.4179 12.4579 10.0451 11.9996 10.0451ZM14.7319 10.0451C14.2744 10.0451 13.902 10.4179 13.902 10.875C13.902 11.3321 14.2747 11.7049 14.7319 11.7049C15.1897 11.7049 15.5625 11.3321 15.5625 10.875C15.5625 10.4179 15.1897 10.0451 14.7319 10.0451Z" fill="#9197B3"/>
</g>
<defs>
<clipPath id="clip0_48_42">
<rect width="24" height="24" fill="white"/>
</clipPath>
</defs>
</svg>
