<svg width="80" height="80" viewBox="0 0 80 80" fill="none" xmlns="http://www.w3.org/2000/svg">
<rect width="80" height="80" rx="40" fill="#FF4F6B" fill-opacity="0.2"/>
<path d="M54.1722 48.2586H31.8606V31.7414H54.1722C58.7716 31.7414 62.5 35.4388 62.5 40C62.5 44.5612 58.7716 48.2586 54.1722 48.2586Z" fill="#FF4F6B"/>
<path d="M54.1723 31.7414H51.4561C56.0553 31.7414 59.7838 35.4388 59.7838 40C59.7838 44.5612 56.0553 48.2586 51.4561 48.2586H54.1723C58.7715 48.2586 62.5 44.5612 62.5 40C62.5 35.4388 58.7715 31.7414 54.1723 31.7414Z" fill="#FB2B3A"/>
<path d="M44.184 42.3052H44.1801C43.6864 42.3079 43.1561 42.3099 42.756 42.3101V37.0165C42.756 36.928 42.7385 36.8404 42.7044 36.7587C42.6702 36.677 42.6202 36.6028 42.5572 36.5403C42.4941 36.4777 42.4193 36.4281 42.3369 36.3943C42.2545 36.3604 42.1662 36.343 42.077 36.343C41.9878 36.343 41.8995 36.3604 41.8171 36.3943C41.7347 36.4281 41.6599 36.4777 41.5968 36.5403C41.5338 36.6028 41.4837 36.677 41.4496 36.7587C41.4155 36.8404 41.3979 36.928 41.3979 37.0165V42.9786C41.3979 43.1374 41.4546 43.2912 41.5578 43.4127C41.6611 43.5341 41.8044 43.6155 41.9623 43.6423C42.0112 43.6507 43.5004 43.6558 44.1879 43.6521C44.368 43.6516 44.5405 43.5801 44.6675 43.4535C44.7945 43.3268 44.8655 43.1553 44.865 42.9767C44.8645 42.7981 44.7925 42.627 44.6647 42.5011C44.537 42.3751 44.3641 42.3046 44.184 42.3052ZM46.5336 36.343C46.4444 36.3429 46.3561 36.3604 46.2737 36.3942C46.1913 36.428 46.1164 36.4776 46.0534 36.5402C45.9903 36.6027 45.9403 36.6769 45.9062 36.7587C45.8721 36.8404 45.8545 36.9279 45.8545 37.0164V42.9835C45.8545 43.072 45.8721 43.1595 45.9062 43.2413C45.9403 43.323 45.9903 43.3972 46.0534 43.4597C46.1164 43.5223 46.1913 43.5719 46.2737 43.6057C46.3561 43.6395 46.4444 43.657 46.5336 43.6569C46.6228 43.657 46.7111 43.6395 46.7934 43.6057C46.8758 43.5719 46.9507 43.5223 47.0138 43.4597C47.0768 43.3972 47.1268 43.323 47.161 43.2413C47.1951 43.1595 47.2126 43.072 47.2126 42.9835V37.0165C47.2126 36.928 47.1951 36.8404 47.161 36.7587C47.1268 36.677 47.0768 36.6028 47.0138 36.5402C46.9507 36.4777 46.8758 36.4281 46.7935 36.3942C46.7111 36.3604 46.6228 36.343 46.5336 36.343ZM58.0236 42.2829H56.1905V40.6734H57.8383C58.0184 40.6734 58.1911 40.6025 58.3185 40.4762C58.4458 40.3499 58.5174 40.1786 58.5174 40C58.5174 39.8214 58.4458 39.6501 58.3185 39.5238C58.1911 39.3975 58.0184 39.3266 57.8383 39.3266H56.1905V37.7171H58.0236C58.1128 37.7171 58.2011 37.6997 58.2835 37.6658C58.3659 37.632 58.4407 37.5824 58.5038 37.5198C58.5668 37.4573 58.6169 37.3831 58.651 37.3014C58.6851 37.2197 58.7027 37.1321 58.7026 37.0437C58.7027 36.9552 58.6851 36.8676 58.651 36.7859C58.6169 36.7042 58.5668 36.63 58.5038 36.5675C58.4407 36.5049 58.3659 36.4553 58.2835 36.4215C58.2011 36.3876 58.1128 36.3702 58.0236 36.3702H55.5113C55.4222 36.3702 55.3339 36.3876 55.2515 36.4215C55.1691 36.4553 55.0942 36.5049 55.0312 36.5675C54.9681 36.63 54.9181 36.7042 54.884 36.7859C54.8498 36.8676 54.8323 36.9552 54.8323 37.0437V42.9564C54.8323 43.0449 54.8498 43.1324 54.884 43.2141C54.9181 43.2959 54.9681 43.3701 55.0312 43.4326C55.0942 43.4952 55.1691 43.5448 55.2515 43.5786C55.3339 43.6124 55.4222 43.6298 55.5113 43.6298H58.0236C58.3987 43.6298 58.7026 43.3283 58.7026 42.9564C58.7026 42.5845 58.3987 42.2829 58.0236 42.2829ZM53.3758 36.3883C53.2911 36.3604 53.2018 36.3493 53.1129 36.3556C53.0239 36.362 52.9371 36.3857 52.8574 36.4253C52.7777 36.4649 52.7066 36.5197 52.6482 36.5866C52.5899 36.6535 52.5454 36.7311 52.5173 36.815L51.0571 41.1737L49.5247 36.7956C49.4018 36.4442 49.0146 36.2578 48.6605 36.3802C48.5763 36.4092 48.4986 36.4543 48.432 36.5131C48.3653 36.5719 48.311 36.6431 48.2721 36.7226C48.2332 36.8022 48.2105 36.8886 48.2053 36.9769C48.2 37.0652 48.2124 37.1536 48.2416 37.2372L50.3006 43.1197C50.357 43.2768 50.4611 43.4128 50.5986 43.509C50.736 43.6052 50.9001 43.6569 51.0683 43.657L51.074 43.6569C51.4205 43.6546 51.7283 43.4344 51.8413 43.1045L53.8059 37.2396C53.8341 37.1557 53.8453 37.0671 53.8389 36.9789C53.8325 36.8907 53.8087 36.8046 53.7687 36.7255C53.7288 36.6465 53.6735 36.576 53.6061 36.5181C53.5387 36.4603 53.4604 36.4161 53.3758 36.3883Z" fill="white"/>
<path d="M28.0878 50.5C33.9353 50.5 38.6757 45.799 38.6757 40C38.6757 34.201 33.9353 29.5 28.0878 29.5C22.2403 29.5 17.5 34.201 17.5 40C17.5 45.799 22.2403 50.5 28.0878 50.5Z" fill="#FF4F6B"/>
<path d="M28.0878 29.5C27.6277 29.5 27.1744 29.5294 26.7296 29.5861C31.9288 30.2492 35.9594 34.6666 35.9594 40C35.9594 45.3334 31.9287 49.7508 26.7296 50.4139C27.1744 50.4706 27.6277 50.5 28.0878 50.5C33.9259 50.5 38.6757 45.7898 38.6757 40C38.6757 34.2103 33.926 29.5 28.0878 29.5Z" fill="#FB2B3A"/>
<path d="M35.8543 41.245C36.5494 36.9892 33.6339 32.9804 29.3425 32.2911C25.0511 31.6018 21.0087 34.493 20.3137 38.7488C19.6186 43.0046 22.5341 47.0134 26.8255 47.7027C31.1169 48.392 35.1593 45.5007 35.8543 41.245Z" fill="white"/>
<path d="M25.8971 43.0833V36.9166C25.8971 36.292 26.6137 35.9332 27.1205 36.304L31.3344 39.3873C31.7503 39.6916 31.7503 40.3082 31.3344 40.6125L27.1205 43.6958C26.6137 44.0668 25.8971 43.7079 25.8971 43.0833Z" fill="#FF4F6B"/>
<path d="M31.3343 39.3874L27.1204 36.3041C26.6136 35.9333 25.897 36.2921 25.897 36.9167V37.3965C27.6644 38.6897 27.6644 41.3104 25.897 42.6036V43.0834C25.897 43.708 26.6135 44.0668 27.1204 43.696L31.3343 40.6127C31.7501 40.3083 31.7501 39.6917 31.3343 39.3874Z" fill="#FB2B3A"/>
</svg>
