<svg width="80" height="80" viewBox="0 0 80 80" fill="none" xmlns="http://www.w3.org/2000/svg">
<rect width="80" height="80" rx="40" fill="#EAB915" fill-opacity="0.2"/>
<path d="M44.6934 41.7761C45.8878 42.7105 46.853 43.9055 47.5151 45.2698C48.1772 46.6341 48.5188 48.1317 48.5138 49.6482V51.5097C48.5138 51.8324 48.3856 52.1419 48.1574 52.37C47.9293 52.5982 47.6198 52.7264 47.2971 52.7264H32.6967C32.374 52.7264 32.0646 52.5982 31.8364 52.37C31.6082 52.1419 31.48 51.8324 31.48 51.5097V49.6482C31.475 48.1317 31.8166 46.6341 32.4787 45.2698C33.1409 43.9055 34.106 42.7105 35.3005 41.7761C33.376 40.2671 32.0763 38.1008 31.6504 35.6927C31.5386 35.103 31.4816 34.5043 31.48 33.9041V32.0426C31.48 31.7199 31.6082 31.4104 31.8364 31.1822C32.0646 30.9541 32.374 30.8259 32.6967 30.8259H47.2971C47.6198 30.8259 47.9293 30.9541 48.1574 31.1822C48.3856 31.4104 48.5138 31.7199 48.5138 32.0426V33.9041C48.5158 35.3619 48.2002 36.8026 47.5891 38.126C46.9303 39.5572 45.9371 40.8091 44.6934 41.7761Z" fill="#79A1E8"/>
<path d="M39.9959 62.46C34.5102 62.46 29.2491 60.2808 25.3702 56.4019C21.4912 52.5229 19.312 47.2619 19.312 41.7762C19.312 36.2905 21.4912 31.0295 25.3702 27.1505C29.2491 23.2715 34.5102 21.0923 39.9959 21.0923C40.3185 21.0923 40.628 21.2205 40.8562 21.4487C41.0844 21.6769 41.2126 21.9864 41.2126 22.309C41.2126 22.6317 41.0844 22.9412 40.8562 23.1694C40.628 23.3976 40.3185 23.5257 39.9959 23.5257C36.3863 23.5257 32.8577 24.5961 29.8564 26.6015C26.8552 28.6069 24.516 31.4572 23.1346 34.792C21.7533 38.1269 21.3919 41.7964 22.0961 45.3367C22.8003 48.8769 24.5385 52.1288 27.0908 54.6812C29.6432 57.2336 32.8951 58.9718 36.4354 59.676C39.9756 60.3801 43.6452 60.0187 46.98 58.6374C50.3148 57.2561 53.1652 54.9169 55.1706 51.9156C57.1759 48.9143 58.2463 45.3858 58.2463 41.7762C58.2463 41.4535 58.3745 41.144 58.6027 40.9158C58.8308 40.6877 59.1403 40.5595 59.463 40.5595C59.7857 40.5595 60.0952 40.6877 60.3233 40.9158C60.5515 41.144 60.6797 41.4535 60.6797 41.7762C60.6797 47.2619 58.5005 52.5229 54.6215 56.4019C50.7426 60.2808 45.4816 62.46 39.9959 62.46Z" fill="#EAB915"/>
<path d="M39.9975 23.5257C39.6748 23.5257 39.3653 23.3975 39.1371 23.1693C38.9089 22.9412 38.7808 22.6317 38.7808 22.309C38.7827 22.15 38.8158 21.9929 38.8781 21.8467C38.9397 21.6992 39.0261 21.5634 39.1336 21.4451C39.2741 21.2987 39.449 21.1896 39.6424 21.128C39.8357 21.0664 40.0415 21.0541 40.2408 21.0923C40.317 21.1056 40.3908 21.1302 40.4598 21.1653C40.5373 21.1919 40.611 21.2288 40.6788 21.2748L40.8613 21.4208C40.9688 21.5391 41.0552 21.6749 41.1168 21.8223C41.1812 21.968 41.2144 22.1254 41.2144 22.2847C41.2144 22.4439 41.1812 22.6014 41.1168 22.747C41.0552 22.8945 40.9688 23.0303 40.8613 23.1485L40.6788 23.2945C40.611 23.3406 40.5373 23.3774 40.4598 23.404C40.3938 23.4561 40.3199 23.4972 40.2408 23.5257H39.9975ZM56.8609 34.7923C56.7545 34.5012 56.7633 34.1804 56.8854 33.8955C57.0075 33.6106 57.2337 33.383 57.5179 33.2593C57.6656 33.1974 57.8242 33.1654 57.9843 33.165C58.1445 33.1645 58.3032 33.1957 58.4513 33.2568C58.5993 33.3178 58.7339 33.4075 58.8473 33.5207C58.9606 33.6338 59.0505 33.7683 59.1118 33.9163C59.1736 34.064 59.2056 34.2226 59.2061 34.3827C59.2065 34.5429 59.1753 34.7016 59.1143 34.8497C59.0532 34.9977 58.9635 35.1323 58.8504 35.2457C58.7372 35.359 58.6027 35.4489 58.4547 35.5102C58.3033 35.5678 58.1423 35.5967 57.9802 35.5953C57.7344 35.5903 57.4958 35.5108 57.296 35.3675C57.0961 35.2241 56.9444 35.0236 56.8609 34.7923ZM52.9066 28.867C52.68 28.639 52.5528 28.3307 52.5528 28.0092C52.5528 27.6878 52.68 27.3794 52.9066 27.1515C53.1366 26.9354 53.4416 26.8171 53.7571 26.8217C54.0727 26.8262 54.3741 26.9532 54.5978 27.1758C54.8244 27.4037 54.9516 27.7121 54.9516 28.0336C54.9516 28.355 54.8244 28.6634 54.5978 28.8913C54.4851 29.0063 54.3508 29.0977 54.2025 29.1604C54.0542 29.2231 53.8949 29.2557 53.734 29.2563C53.418 29.2391 53.1213 29.0994 52.9066 28.867ZM46.9813 24.9127C46.8333 24.8515 46.6989 24.7616 46.5857 24.6482C46.4725 24.5349 46.3828 24.4003 46.3218 24.2522C46.2607 24.1042 46.2295 23.9455 46.23 23.7853C46.2304 23.6251 46.2624 23.4666 46.3243 23.3189C46.3855 23.1709 46.4754 23.0364 46.5888 22.9232C46.7021 22.8101 46.8367 22.7204 46.9848 22.6593C47.1329 22.5983 47.2915 22.5671 47.4517 22.5675C47.6119 22.568 47.7704 22.6 47.9182 22.6618C48.0661 22.7231 48.2006 22.813 48.3138 22.9263C48.4269 23.0397 48.5166 23.1743 48.5777 23.3223C48.6387 23.4704 48.6699 23.6291 48.6695 23.7893C48.6691 23.9494 48.637 24.108 48.5752 24.2557C48.4839 24.4779 48.3289 24.6681 48.1297 24.8024C47.9305 24.9366 47.696 25.0089 47.4558 25.0101C47.293 25.007 47.1321 24.974 46.9813 24.9127ZM59.4646 42.9928C59.3045 42.9938 59.1457 42.9631 58.9975 42.9025C58.8493 42.842 58.7144 42.7528 58.6007 42.64C58.4867 42.5269 58.3962 42.3923 58.3344 42.2441C58.2727 42.0958 58.2409 41.9368 58.2409 41.7761C58.2409 41.6155 58.2727 41.4565 58.3344 41.3082C58.3962 41.16 58.4867 41.0254 58.6007 40.9123L58.7833 40.7663C58.8511 40.7202 58.9247 40.6834 59.0023 40.6568L59.2213 40.5594C59.3779 40.5283 59.5391 40.5283 59.6958 40.5594C59.7764 40.5707 59.8545 40.5954 59.9269 40.6324C60.0017 40.6567 60.0717 40.6938 60.1338 40.7419L60.3285 40.888C60.4425 41.0011 60.533 41.1356 60.5948 41.2839C60.6565 41.4322 60.6884 41.5912 60.6884 41.7518C60.6884 41.9124 60.6565 42.0715 60.5948 42.2197C60.533 42.368 60.4425 42.5026 60.3285 42.6157C60.2168 42.7328 60.0829 42.8265 59.9345 42.8913C59.7862 42.9561 59.6264 42.9906 59.4646 42.9928Z" fill="#EAB915"/>
<path d="M37.7203 27.3338C37.4011 27.3325 37.0953 27.2058 36.8686 26.981C36.642 26.753 36.5148 26.4446 36.5148 26.1232C36.5148 25.8018 36.642 25.4934 36.8686 25.2654L39.6549 22.467L36.8686 19.6808C36.7413 19.5717 36.6378 19.4375 36.5648 19.2866C36.4918 19.1356 36.4507 18.9712 36.4443 18.8036C36.4378 18.6361 36.466 18.469 36.5272 18.3128C36.5884 18.1567 36.6811 18.0149 36.7997 17.8963C36.9183 17.7778 37.0601 17.685 37.2162 17.6238C37.3724 17.5626 37.5395 17.5344 37.707 17.5409C37.8746 17.5474 38.039 17.5884 38.1899 17.6614C38.3409 17.7345 38.4751 17.8379 38.5842 17.9653L42.2343 21.6154C42.4609 21.8433 42.5881 22.1517 42.5881 22.4731C42.5881 22.7946 42.4609 23.1029 42.2343 23.3309L38.5842 26.981C38.4705 27.0938 38.3357 27.183 38.1874 27.2435C38.0392 27.3041 37.8805 27.3348 37.7203 27.3338Z" fill="#EAB915"/>
<path d="M45.8117 50.7553L40.9449 44.6718C40.8309 44.5297 40.6865 44.4151 40.5222 44.3362C40.358 44.2574 40.1781 44.2165 39.9959 44.2165C39.8137 44.2165 39.6339 44.2574 39.4696 44.3362C39.3054 44.4151 39.1609 44.5297 39.0469 44.6718L34.1801 50.7553C34.0389 50.9334 33.9504 51.1474 33.9246 51.3732C33.8987 51.599 33.9367 51.8275 34.0341 52.0329C34.1327 52.2399 34.2878 52.4149 34.4816 52.5376C34.6753 52.6603 34.8998 52.7257 35.1291 52.7264H44.8627C45.092 52.7257 45.3165 52.6603 45.5103 52.5376C45.704 52.4149 45.8591 52.2399 45.9577 52.0329C46.0551 51.8275 46.0931 51.599 46.0673 51.3732C46.0415 51.1474 45.9529 50.9334 45.8117 50.7553ZM48.3546 35.6926C48.207 36.5339 47.9493 37.352 47.5881 38.126H32.4037C32.0426 37.352 31.7848 36.5339 31.6372 35.6926H48.3546Z" fill="#F9D015"/>
<path d="M49.7302 33.2593H30.2631C29.9404 33.2593 29.6309 33.1311 29.4027 32.9029C29.1746 32.6747 29.0464 32.3653 29.0464 32.0426C29.0464 31.7199 29.1746 31.4104 29.4027 31.1822C29.6309 30.9541 29.9404 30.8259 30.2631 30.8259H49.7302C50.0529 30.8259 50.3624 30.9541 50.5906 31.1822C50.8187 31.4104 50.9469 31.7199 50.9469 32.0426C50.9469 32.3653 50.8187 32.6747 50.5906 32.9029C50.3624 33.1311 50.0529 33.2593 49.7302 33.2593ZM49.7302 52.7264H30.2631C29.9404 52.7264 29.6309 52.5982 29.4027 52.37C29.1746 52.1419 29.0464 51.8324 29.0464 51.5097C29.0464 51.187 29.1746 50.8775 29.4027 50.6494C29.6309 50.4212 29.9404 50.293 30.2631 50.293H49.7302C50.0529 50.293 50.3624 50.4212 50.5906 50.6494C50.8187 50.8775 50.9469 51.187 50.9469 51.5097C50.9469 51.8324 50.8187 52.1419 50.5906 52.37C50.3624 52.5982 50.0529 52.7264 49.7302 52.7264Z" fill="#4B31AA"/>
</svg>
