<svg width="80" height="80" viewBox="0 0 80 80" fill="none" xmlns="http://www.w3.org/2000/svg">
<rect width="80" height="80" rx="40" fill="#88C8FE" fill-opacity="0.2"/>
<path fill-rule="evenodd" clip-rule="evenodd" d="M57.1703 33.1993V51.4095C57.1703 52.7628 55.7993 53.8665 54.1182 53.8665H25.8818C24.2007 53.8665 22.8298 52.7628 22.8298 51.4095V33.1993L36.4662 19.372L37.3587 18.6522C38.7763 17.509 41.2234 17.509 42.6411 18.6522L43.5342 19.3724L57.1703 33.1993Z" fill="#CCCCCC"/>
<path fill-rule="evenodd" clip-rule="evenodd" d="M24.3795 53.5469C23.4554 53.1238 22.8298 52.3237 22.8298 51.4095V33.1993L36.4662 19.372L37.3587 18.6522C38.5118 17.7223 40.346 17.5489 41.7532 18.1317L42.1078 18.4289L54.8507 32.0573V50.992C54.8507 52.3993 53.4797 53.5469 51.7986 53.5469H24.3795ZM34.9595 44.889C37.6753 48.4402 42.7159 49.0867 46.2182 46.3328C49.7204 43.579 50.358 38.4679 47.6422 34.9166C44.9265 31.3653 39.8858 30.719 36.3836 33.4726C32.8813 36.2265 32.2438 41.3377 34.9595 44.889Z" fill="#E6E6E6"/>
<path fill-rule="evenodd" clip-rule="evenodd" d="M20.0306 34.8951C20.756 35.6307 21.9471 35.6306 22.6725 34.8951L38.0705 19.2815C39.1339 18.2032 40.8663 18.2032 41.9296 19.2815L57.3276 34.8951C58.0531 35.6307 59.2441 35.6307 59.9695 34.8951C60.6944 34.1601 60.6966 32.9516 59.9702 32.217L44.1945 16.2619C41.8697 13.9105 38.0811 13.913 35.7592 16.2675L20.0306 32.2163C19.3052 32.9518 19.3052 34.1596 20.0306 34.8951Z" fill="#ADA0AD"/>
<path fill-rule="evenodd" clip-rule="evenodd" d="M25.2242 44.9567L21.4966 54.406L29.573 58.8157L36.7972 64.3408C37.5767 65.2346 39.0271 65.7281 39.9185 65.3961C40.5952 65.144 40.9498 64.416 40.4436 63.0259C41.535 63.9592 42.4395 64.2395 43.1984 63.833C44.0227 63.3915 44.4964 62.3677 43.9644 61.0458C45.1014 62.0574 46.1203 62.5333 46.8651 62.1305C47.6517 61.7051 47.959 60.9955 47.4505 59.5434C49.0978 60.8343 50.024 60.4572 50.7943 59.7437C51.5093 59.0812 51.7186 58.2702 51.0642 57.5199L46.6996 52.5161L40.7557 44.3267C39.5357 43.7595 38.2993 43.4314 37.0471 43.3322C34.3714 43.1204 32.3375 44.1078 29.7722 44.5594C28.2629 44.8251 26.747 44.9591 25.2242 44.9567Z" fill="#FCD4A9"/>
<path fill-rule="evenodd" clip-rule="evenodd" d="M54.7759 44.9567L58.5035 54.406L51.473 58.2446C51.3873 57.9772 51.2482 57.7305 51.0643 57.52L46.6997 52.5162L46.6996 52.5165L46.6995 52.5163C44.3789 52.9554 42.1034 52.7072 39.8656 51.8864L34.022 55.8366C33.5825 56.1351 33.0484 56.2551 32.5257 56.1729C32.003 56.0906 31.5299 55.812 31.2004 55.3925L31.1065 55.2735C30.7801 54.8625 30.6154 54.3435 30.6442 53.8167C30.673 53.2898 30.8932 52.7924 31.2624 52.4205L39.2443 44.3269C40.4642 43.7599 41.7006 43.4316 42.9528 43.3325C45.6287 43.1207 47.6624 44.108 50.2277 44.5596C51.7372 44.8251 53.2531 44.9591 54.7759 44.9567Z" fill="#F0B16E"/>
<path fill-rule="evenodd" clip-rule="evenodd" d="M26.7583 42.8603L23.6607 41.6915C23.0715 41.4691 22.41 41.776 22.1907 42.3736L17.5714 54.9612C17.3522 55.5586 17.6549 56.2294 18.2442 56.4518L21.3418 57.6205C21.931 57.8428 22.5925 57.5359 22.8118 56.9383L27.431 44.3508C27.6502 43.7534 27.3475 43.0826 26.7583 42.8603ZM53.2418 42.8603L56.3393 41.6915C56.9285 41.4691 57.59 41.776 57.8093 42.3736L62.4286 54.9612C62.6478 55.5586 62.3451 56.2294 61.7558 56.4518L58.6582 57.6205C58.069 57.8428 57.4075 57.5359 57.1882 56.9383L52.5689 44.3508C52.3498 43.7534 52.6525 43.0826 53.2418 42.8603Z" fill="#88C8FE"/>
<path d="M47.1136 43.0817C49.1785 39.1055 47.6735 34.1847 43.7522 32.091C39.8308 29.9972 34.978 31.5232 32.9131 35.4995C30.8482 39.4757 32.3532 44.3964 36.2746 46.4902C40.1959 48.584 45.0487 47.058 47.1136 43.0817Z" fill="#FFE177"/>
<path fill-rule="evenodd" clip-rule="evenodd" d="M43.0757 35.5201C43.169 35.5656 43.2524 35.6293 43.3213 35.7076C43.3902 35.7858 43.4431 35.8771 43.4771 35.9762C43.511 36.0753 43.5254 36.1802 43.5192 36.2849C43.5131 36.3896 43.4866 36.4921 43.4413 36.5864C43.3961 36.6807 43.3328 36.765 43.2553 36.8344C43.1778 36.9039 43.0875 36.9571 42.9896 36.9911C42.8918 37.0251 42.7882 37.0391 42.685 37.0324C42.5818 37.0257 42.4808 36.9983 42.3881 36.9519C41.5897 36.5579 40.3148 36.2743 39.3685 36.4682L38.8116 36.647L38.8119 36.6478C38.3033 36.8665 37.8362 37.3147 38.2245 37.8032C38.3471 37.9575 38.5449 38.1016 38.8179 38.2353L38.8182 38.2348C39.8958 38.7051 40.4111 38.2351 41.8399 38.8507C42.7818 39.2565 43.4678 40.0373 43.5285 41.0606C43.5305 41.0942 43.5303 41.1274 43.5281 41.1602H43.5285C43.4264 42.641 42.1272 43.4543 40.786 43.6715V44.0641C40.786 44.2755 40.7032 44.4782 40.5559 44.6276C40.4085 44.7771 40.2086 44.861 40.0001 44.861C39.7917 44.861 39.5918 44.7771 39.4444 44.6276C39.297 44.4782 39.2142 44.2755 39.2142 44.0641V43.6853C38.4209 43.595 37.6472 43.3753 36.923 43.0347C36.737 42.9437 36.5937 42.7821 36.5243 42.5849C36.4548 42.3877 36.4647 42.1707 36.5519 41.9808C36.6391 41.7909 36.7965 41.6435 36.99 41.5704C37.1836 41.4974 37.3977 41.5045 37.5861 41.5903C38.5676 42.0536 40.1459 42.3996 41.2137 41.907C41.6983 41.6835 42.2128 41.2491 41.8046 40.7331C41.4205 40.2476 40.6002 40.0712 40.0052 40.0679C39.3772 40.0643 38.76 39.943 38.198 39.6977L38.1985 39.6967C37.2437 39.262 36.5775 38.5355 36.5141 37.5035C36.4835 37.0061 36.7119 36.4283 37.0128 36.0496C37.2964 35.6927 37.6935 35.4043 38.2043 35.1846L38.2045 35.1852C38.5253 35.0421 38.8626 34.9426 39.2142 34.8831V34.4842C39.2142 34.2729 39.297 34.0702 39.4444 33.9207C39.5918 33.7713 39.7917 33.6873 40.0001 33.6873C40.2086 33.6873 40.4085 33.7713 40.5559 33.9207C40.7032 34.0702 40.786 34.2729 40.786 34.4842V34.8659C41.6085 34.9582 42.3654 35.1695 43.0757 35.5201Z" fill="#D1991F"/>
<path fill-rule="evenodd" clip-rule="evenodd" d="M51.4051 38.7137C51.36 37.7423 51.194 36.7805 50.9111 35.8513C49.5909 31.5201 45.8711 28.3564 41.4329 27.7872C34.1993 26.8595 27.9707 32.9603 28.6271 40.3267C28.6458 40.5364 28.5816 40.745 28.4486 40.9068C28.3156 41.0685 28.1247 41.17 27.9179 41.1889C27.7111 41.2079 27.5053 41.1428 27.3458 41.008C27.1863 40.8731 27.0862 40.6795 27.0675 40.4698C26.8713 38.2637 27.2245 36.043 28.0947 34.0113C30.3926 28.6538 35.9181 25.4798 41.6292 26.2122C47.9331 27.0206 52.7227 32.3328 52.976 38.7378L53.2534 38.4492C53.399 38.3017 53.5961 38.2182 53.802 38.2168C54.0079 38.2155 54.2061 38.2963 54.3537 38.4418C54.5013 38.5874 54.5865 38.786 54.5908 38.9948C54.5952 39.2035 54.5184 39.4056 54.377 39.5573L52.7224 41.278C52.3776 41.6616 51.8384 41.6436 51.531 41.2856L49.9694 39.4675C49.8377 39.3075 49.773 39.1015 49.7893 38.8937C49.8056 38.6859 49.9016 38.4929 50.0566 38.356C50.2117 38.2192 50.4135 38.1494 50.6187 38.1616C50.8239 38.1739 51.0162 38.2672 51.1543 38.4216L51.4051 38.7137Z" fill="#F0B16E"/>
</svg>
