<svg width="80" height="80" viewBox="0 0 80 80" fill="none" xmlns="http://www.w3.org/2000/svg">
<g clip-path="url(#clip0_447_11)">
<path d="M80 40C80 17.9086 62.0914 0 40 0C17.9086 0 0 17.9086 0 40C0 62.0914 17.9086 80 40 80C62.0914 80 80 62.0914 80 40Z" fill="#DAF2CE"/>
<path fill-rule="evenodd" clip-rule="evenodd" d="M57.17 33.1993V51.4095C57.17 52.7628 55.799 53.8665 54.1179 53.8665H25.8815C24.2005 53.8665 22.8296 52.7628 22.8296 51.4095V33.1993L36.4659 19.372L37.3585 18.6522C38.7761 17.509 41.2232 17.509 42.6409 18.6522L43.5339 19.3724L57.17 33.1993Z" fill="#CCCCCC"/>
<path fill-rule="evenodd" clip-rule="evenodd" d="M24.3793 53.5468C23.4552 53.1238 22.8296 52.3236 22.8296 51.4095V33.1993L36.4659 19.372L37.3585 18.6522C38.5115 17.7223 40.3458 17.5488 41.753 18.1316L42.1075 18.4289L54.8504 32.0572V50.992C54.8504 52.3993 53.4794 53.5468 51.7984 53.5468H24.3793ZM34.9593 44.8889C37.675 48.4402 42.7157 49.0867 46.2179 46.3328C49.7202 43.579 50.3577 38.4678 47.642 34.9166C44.9262 31.3653 39.8856 30.7189 36.3833 33.4726C32.8811 36.2265 32.2435 41.3377 34.9593 44.8889Z" fill="#E6E6E6"/>
<path fill-rule="evenodd" clip-rule="evenodd" d="M20.0304 34.8951C20.7557 35.6307 21.9469 35.6306 22.6723 34.8951L38.0703 19.2815C39.1337 18.2032 40.866 18.2032 41.9294 19.2815L57.3274 34.8951C58.0528 35.6307 59.2438 35.6307 59.9693 34.8951C60.6941 34.1601 60.6963 32.9516 59.97 32.217L44.1943 16.2619C41.8694 13.9105 38.0809 13.913 35.7589 16.2675L20.0304 32.2163C19.305 32.9518 19.305 34.1596 20.0304 34.8951Z" fill="#ADA0AD"/>
<path fill-rule="evenodd" clip-rule="evenodd" d="M25.2242 44.9567L21.4966 54.406L29.573 58.8157L36.7972 64.3408C37.5767 65.2346 39.0271 65.7281 39.9185 65.3961C40.5952 65.144 40.9498 64.416 40.4436 63.0259C41.535 63.9592 42.4395 64.2395 43.1984 63.833C44.0227 63.3915 44.4964 62.3677 43.9644 61.0458C45.1014 62.0574 46.1203 62.5333 46.8651 62.1305C47.6517 61.7051 47.959 60.9955 47.4505 59.5434C49.0978 60.8343 50.024 60.4572 50.7943 59.7437C51.5093 59.0812 51.7186 58.2702 51.0642 57.5199L46.6996 52.5161L40.7557 44.3267C39.5357 43.7595 38.2993 43.4314 37.0471 43.3322C34.3714 43.1204 32.3375 44.1078 29.7722 44.5594C28.2629 44.8251 26.747 44.9591 25.2242 44.9567Z" fill="#FCD4A9"/>
<path fill-rule="evenodd" clip-rule="evenodd" d="M54.776 44.9567L58.5036 54.406L51.4731 58.2446C51.3875 57.9772 51.2484 57.7305 51.0645 57.52L46.6999 52.5162C44.3793 52.9553 42.1035 52.7072 39.8657 51.8864L34.0221 55.8367C33.5826 56.1351 33.0485 56.2552 32.5258 56.1729C32.0031 56.0906 31.53 55.812 31.2005 55.3925L31.1066 55.2735C30.7802 54.8626 30.6156 54.3435 30.6443 53.8167C30.6731 53.2898 30.8933 52.7924 31.2625 52.4205L39.2444 44.3269C40.4643 43.7599 41.7008 43.4316 42.9529 43.3325C45.6288 43.1207 47.6626 44.108 50.2279 44.5596C51.7373 44.8251 53.2532 44.9591 54.776 44.9567Z" fill="#F0B16E"/>
<path fill-rule="evenodd" clip-rule="evenodd" d="M26.7583 42.8603L23.6607 41.6915C23.0715 41.4691 22.41 41.776 22.1907 42.3736L17.5714 54.9611C17.3522 55.5586 17.6549 56.2294 18.2442 56.4518L21.3418 57.6204C21.931 57.8428 22.5925 57.5359 22.8118 56.9383L27.431 44.3508C27.6502 43.7534 27.3475 43.0826 26.7583 42.8603ZM53.2418 42.8603L56.3393 41.6915C56.9285 41.4691 57.59 41.776 57.8093 42.3736L62.4286 54.9611C62.6478 55.5586 62.3451 56.2294 61.7558 56.4518L58.6582 57.6204C58.069 57.8428 57.4075 57.5359 57.1882 56.9383L52.5689 44.3508C52.3498 43.7534 52.6525 43.0826 53.2418 42.8603Z" fill="#88C8FE"/>
<path d="M47.1137 43.0817C49.1786 39.1055 47.6736 34.1847 43.7523 32.0909C39.8309 29.9972 34.9781 31.5232 32.9132 35.4995C30.8483 39.4757 32.3533 44.3964 36.2747 46.4902C40.196 48.584 45.0488 47.058 47.1137 43.0817Z" fill="#FFE177"/>
<path fill-rule="evenodd" clip-rule="evenodd" d="M43.0757 35.5201C43.169 35.5656 43.2524 35.6293 43.3213 35.7076C43.3902 35.7859 43.4431 35.8771 43.4771 35.9762C43.511 36.0753 43.5254 36.1802 43.5192 36.2849C43.5131 36.3896 43.4866 36.4921 43.4413 36.5864C43.3961 36.6807 43.3328 36.765 43.2553 36.8345C43.1778 36.9039 43.0875 36.9572 42.9896 36.9911C42.8918 37.0251 42.7882 37.0391 42.685 37.0324C42.5818 37.0257 42.4808 36.9983 42.3881 36.952C41.5897 36.5579 40.3148 36.2743 39.3685 36.4682L38.8116 36.647C38.303 36.8658 37.8362 37.3147 38.2245 37.8032C38.3471 37.9575 38.5449 38.1016 38.8179 38.2353C39.8955 38.7056 40.4111 38.2352 41.8399 38.8507C42.7818 39.2565 43.4678 40.0373 43.5285 41.0606C43.5305 41.0942 43.5303 41.1274 43.5281 41.1602C43.426 42.641 42.1272 43.4543 40.786 43.6715V44.0641C40.786 44.2755 40.7032 44.4782 40.5559 44.6276C40.4085 44.7771 40.2086 44.861 40.0001 44.861C39.7917 44.861 39.5918 44.7771 39.4444 44.6276C39.297 44.4782 39.2142 44.2755 39.2142 44.0641V43.6853C38.4209 43.595 37.6472 43.3753 36.923 43.0347C36.737 42.9437 36.5937 42.7822 36.5243 42.5849C36.4548 42.3877 36.4647 42.1707 36.5519 41.9808C36.6391 41.791 36.7965 41.6435 36.99 41.5705C37.1836 41.4974 37.3977 41.5045 37.5861 41.5903C38.5676 42.0536 40.1459 42.3996 41.2137 41.907C41.6983 41.6835 42.2128 41.2491 41.8046 40.7331C41.4205 40.2476 40.6002 40.0712 40.0052 40.0679C39.3772 40.0643 38.76 39.943 38.198 39.6977L38.1985 39.6967C37.2437 39.262 36.5775 38.5355 36.5141 37.5035C36.4835 37.0061 36.7119 36.4283 37.0128 36.0496C37.2964 35.6927 37.6935 35.4043 38.2043 35.1846C38.5251 35.0415 38.8626 34.9426 39.2142 34.8831V34.4842C39.2142 34.2729 39.297 34.0702 39.4444 33.9207C39.5918 33.7713 39.7917 33.6873 40.0001 33.6873C40.2086 33.6873 40.4085 33.7713 40.5559 33.9207C40.7032 34.0702 40.786 34.2729 40.786 34.4842V34.8659C41.6085 34.9582 42.3654 35.1695 43.0757 35.5201Z" fill="#D1991F"/>
<path fill-rule="evenodd" clip-rule="evenodd" d="M51.405 38.7137C51.3598 37.7423 51.1938 36.7805 50.9109 35.8513C49.5908 31.5202 45.871 28.3564 41.4328 27.7872C34.1992 26.8595 27.9706 32.9603 28.6269 40.3267C28.6457 40.5364 28.5815 40.7451 28.4485 40.9068C28.3155 41.0685 28.1246 41.17 27.9177 41.189C27.7109 41.2079 27.5052 41.1428 27.3457 41.008C27.1862 40.8731 27.0861 40.6795 27.0674 40.4698C26.8712 38.2637 27.2244 36.043 28.0945 34.0113C30.3925 28.6538 35.918 25.4798 41.6291 26.2122C47.933 27.0206 52.7226 32.3328 52.9759 38.7378L53.2532 38.4493C53.3989 38.3017 53.596 38.2182 53.8019 38.2169C54.0078 38.2155 54.206 38.2963 54.3536 38.4419C54.5012 38.5874 54.5863 38.786 54.5907 38.9948C54.5951 39.2035 54.5182 39.4056 54.3768 39.5574L52.7222 41.2781C52.3775 41.6617 51.8382 41.6437 51.5309 41.2856L49.9693 39.4675C49.8375 39.3075 49.7729 39.1015 49.7892 38.8938C49.8055 38.686 49.9015 38.4929 50.0565 38.3561C50.2116 38.2192 50.4133 38.1494 50.6185 38.1616C50.8238 38.1739 51.0161 38.2672 51.1542 38.4216L51.405 38.7137Z" fill="#F0B16E"/>
</g>
<defs>
<clipPath id="clip0_447_11">
<rect width="80" height="80" fill="white"/>
</clipPath>
</defs>
</svg>
