<svg width="44" height="45" viewBox="0 0 44 45" fill="none" xmlns="http://www.w3.org/2000/svg">
<rect y="0.405273" width="44" height="44" rx="10" fill="#3D42DF"/>
<path d="M30.5 16.299H13.5C11.57 16.299 10 17.869 10 19.799V29.799C10 31.7289 11.57 33.299 13.5 33.299H30.5C32.43 33.299 34 31.729 34 29.799V19.799C34 17.869 32.43 16.299 30.5 16.299ZM33 29.799C33 31.177 31.879 32.299 30.5 32.299H13.5C12.121 32.299 11 31.177 11 29.799V19.799C11 18.421 12.121 17.299 13.5 17.299H30.5C31.879 17.299 33 18.421 33 19.799V29.799Z" fill="white"/>
<path d="M29.5 23.299C28.673 23.299 28 23.972 28 24.799C28 25.626 28.673 26.299 29.5 26.299C30.327 26.299 31 25.626 31 24.799C31 23.972 30.327 23.299 29.5 23.299ZM29.5 25.299C29.225 25.299 29 25.075 29 24.799C29 24.523 29.225 24.299 29.5 24.299C29.775 24.299 30 24.523 30 24.799C30 25.075 29.775 25.299 29.5 25.299Z" fill="white"/>
<path d="M33.5 21.299H29.5C27.57 21.299 26 22.869 26 24.799C26 26.729 27.57 28.299 29.5 28.299H33.5C33.776 28.299 34 28.075 34 27.799V21.799C34 21.523 33.776 21.299 33.5 21.299ZM33 27.299H29.5C28.121 27.299 27 26.177 27 24.799C27 23.421 28.121 22.299 29.5 22.299H33V27.299ZM30.447 16.575L28.33 12.341C27.903 11.487 27.166 10.858 26.256 10.57C25.346 10.283 24.382 10.373 23.54 10.825L13.263 16.359C13.02 16.489 12.929 16.793 13.06 17.036C13.191 17.279 13.495 17.37 13.737 17.239L24.016 11.707C24.616 11.383 25.307 11.318 25.955 11.524C26.605 11.729 27.131 12.179 27.436 12.789L29.553 17.023C29.5946 17.1059 29.6584 17.1757 29.7373 17.2244C29.8163 17.2732 29.9072 17.299 30 17.299C30.075 17.299 30.151 17.282 30.223 17.246C30.47 17.122 30.57 16.822 30.447 16.575Z" fill="white"/>
<path d="M28.441 12.563C28.309 12.319 28.005 12.229 27.763 12.359L20.334 16.359C20.091 16.49 20 16.793 20.131 17.036C20.221 17.204 20.393 17.299 20.571 17.299C20.651 17.299 20.733 17.28 20.809 17.24L28.238 13.24C28.481 13.109 28.572 12.806 28.441 12.563ZM19 13.299H15.5C12.468 13.299 10 15.766 10 18.799V19.799C10 20.075 10.224 20.299 10.5 20.299C10.776 20.299 11 20.075 11 19.799V18.799C11 16.318 13.019 14.299 15.5 14.299H19C19.276 14.299 19.5 14.075 19.5 13.799C19.5 13.523 19.276 13.299 19 13.299ZM28.5 13.299C28.224 13.299 28 13.523 28 13.799C28 14.075 28.224 14.2991 28.5 14.2991C30.981 14.2991 33 16.3181 33 18.7991V19.799C33 20.075 33.224 20.2991 33.5 20.2991C33.776 20.2991 34 20.075 34 19.799V18.7991C34 15.766 31.532 13.299 28.5 13.299Z" fill="white"/>
</svg>
