<svg width="44" height="44" viewBox="0 0 44 44" fill="none" xmlns="http://www.w3.org/2000/svg">
<rect width="44" height="44" rx="10" fill="#263CA2"/>
<path d="M30.5 15.8937H13.5C11.57 15.8937 10 17.4637 10 19.3937V29.3937C10 31.3237 11.57 32.8937 13.5 32.8937H30.5C32.43 32.8937 34 31.3237 34 29.3937V19.3937C34 17.4637 32.43 15.8937 30.5 15.8937ZM33 29.3937C33 30.7717 31.879 31.8937 30.5 31.8937H13.5C12.121 31.8937 11 30.7717 11 29.3937V19.3937C11 18.0157 12.121 16.8937 13.5 16.8937H30.5C31.879 16.8937 33 18.0157 33 19.3937V29.3937Z" fill="white"/>
<path d="M29.5 22.8937C28.673 22.8937 28 23.5667 28 24.3937C28 25.2208 28.673 25.8937 29.5 25.8937C30.327 25.8937 31 25.2208 31 24.3937C31 23.5667 30.327 22.8937 29.5 22.8937ZM29.5 24.8938C29.225 24.8938 29 24.6697 29 24.3937C29 24.1177 29.225 23.8937 29.5 23.8937C29.775 23.8937 30 24.1177 30 24.3937C30 24.6697 29.775 24.8938 29.5 24.8938Z" fill="white"/>
<path d="M33.5 20.8937H29.5C27.57 20.8937 26 22.4637 26 24.3937C26 26.3237 27.57 27.8937 29.5 27.8937H33.5C33.776 27.8937 34 27.6697 34 27.3937V21.3937C34 21.1177 33.776 20.8937 33.5 20.8937ZM33 26.8937H29.5C28.121 26.8937 27 25.7717 27 24.3937C27 23.0157 28.121 21.8937 29.5 21.8937H33V26.8937ZM30.447 16.1697L28.33 11.9357C27.903 11.0817 27.166 10.4527 26.256 10.1647C25.346 9.8777 24.382 9.9677 23.54 10.4197L13.263 15.9537C13.02 16.0837 12.929 16.3877 13.06 16.6307C13.191 16.8737 13.495 16.9647 13.737 16.8338L24.016 11.3017C24.616 10.9777 25.307 10.9127 25.955 11.1187C26.605 11.3237 27.131 11.7737 27.436 12.3837L29.553 16.6177C29.5946 16.7007 29.6584 16.7704 29.7373 16.8192C29.8163 16.8679 29.9072 16.8937 30 16.8937C30.075 16.8937 30.151 16.8767 30.223 16.8407C30.47 16.7167 30.57 16.4167 30.447 16.1697Z" fill="white"/>
<path d="M28.441 12.1577C28.309 11.9137 28.005 11.8237 27.763 11.9537L20.334 15.9537C20.091 16.0847 20 16.3877 20.131 16.6307C20.221 16.7987 20.393 16.8937 20.571 16.8937C20.651 16.8937 20.733 16.8747 20.809 16.8347L28.238 12.8347C28.481 12.7037 28.572 12.4007 28.441 12.1577ZM19 12.8937H15.5C12.468 12.8937 10 15.3607 10 18.3937V19.3937C10 19.6697 10.224 19.8937 10.5 19.8937C10.776 19.8937 11 19.6697 11 19.3937V18.3937C11 15.9127 13.019 13.8937 15.5 13.8937H19C19.276 13.8937 19.5 13.6697 19.5 13.3937C19.5 13.1177 19.276 12.8937 19 12.8937ZM28.5 12.8937C28.224 12.8937 28 13.1178 28 13.3938C28 13.6698 28.224 13.8938 28.5 13.8938C30.981 13.8938 33 15.9128 33 18.3938V19.3938C33 19.6698 33.224 19.8938 33.5 19.8938C33.776 19.8938 34 19.6698 34 19.3938V18.3938C34 15.3607 31.532 12.8937 28.5 12.8937Z" fill="white"/>
</svg>
